<svg id="Layer_1" data-name="Layer 1" xmlns="http://www.w3.org/2000/svg" viewBox="0 0 126 32"><title>Artboard 1 copy 10</title><path d="M21.81,9.52h7v1.24H23.47V15.1h4.88v1.22H23.47v5.8H21.81Z"/><path d="M30.36,11.32a.93.93,0,0,1,1-.94.92.92,0,1,1,0,1.84A.91.91,0,0,1,30.36,11.32Zm.24,2.37h1.53v8.43H30.6Z"/><path d="M34.9,19.71V9.16h1.53V19.73c0,.95.36,1.35,1.26,1.35a3.46,3.46,0,0,0,.9-.13v1.13a3.9,3.9,0,0,1-1.28.18C35.65,22.26,34.9,21.53,34.9,19.71Z"/><path d="M52.29,22.12H50.78v-5.4c0-1.5-.63-2-1.62-2A2.63,2.63,0,0,0,47,16.16v6H45.48V16.68c0-1.47-.65-1.94-1.56-1.94a3,3,0,0,0-2.24,1.31v6.07H40.15V15.64a18.49,18.49,0,0,0-.1-2h1.36a4.89,4.89,0,0,1,.24,1.3,3.32,3.32,0,0,1,2.72-1.51,2.31,2.31,0,0,1,2.43,1.65,3.21,3.21,0,0,1,2.68-1.65c1.62,0,2.81.86,2.81,3.08Z"/><path d="M54.61,16.11h4.5v1.36h-4.5Z"/><path d="M61.48,15.84c0-3.95,2.54-6.58,6.43-6.58a9.32,9.32,0,0,1,3.75.78v1.55a7.54,7.54,0,0,0-3.71-1c-2.9,0-4.76,1.93-4.76,5.21S65,21,68.05,21a7.66,7.66,0,0,0,2.33-.36v-3H68.09V16.47H72v5.15a11,11,0,0,1-4,.73C64,22.35,61.48,20,61.48,15.84Z"/><path d="M74.1,19.64c0-1.52,1.31-2.67,3.44-2.67a4.34,4.34,0,0,1,1.67.27v-.77c0-1.23-.59-1.88-2-1.88a5.78,5.78,0,0,0-2.48.63V14a6.72,6.72,0,0,1,2.75-.54c2.09,0,3.23.93,3.23,2.79V20c0,.88.27,1.28.7,1.28a1,1,0,0,0,.43-.11V22a1.64,1.64,0,0,1-.94.22A1.46,1.46,0,0,1,79.3,21a2.66,2.66,0,0,1-2.48,1.29A2.49,2.49,0,0,1,74.1,19.64Zm5.11.19V18.16a3.67,3.67,0,0,0-1.42-.24c-1.44,0-2.09.73-2.09,1.7a1.37,1.37,0,0,0,1.53,1.51A2.18,2.18,0,0,0,79.21,19.83Z"/><path d="M95.58,22.12H94.07v-5.4c0-1.5-.63-2-1.62-2a2.62,2.62,0,0,0-2.2,1.42v6H88.77V16.68c0-1.47-.65-1.94-1.56-1.94A3,3,0,0,0,85,16.05v6.07H83.44V15.64a15.31,15.31,0,0,0-.11-2H84.7a4.89,4.89,0,0,1,.24,1.3,3.32,3.32,0,0,1,2.72-1.51,2.31,2.31,0,0,1,2.43,1.65,3.21,3.21,0,0,1,2.68-1.65c1.62,0,2.81.86,2.81,3.08Z"/><path d="M97.57,17.91c0-2.65,1.59-4.43,4-4.43a3.55,3.55,0,0,1,3.67,3.81c0,.31,0,.67,0,.8H99.14c.07,1.87,1,3.06,2.88,3.06a4.76,4.76,0,0,0,2.84-.87v1.19a5,5,0,0,1-3,.87A4.07,4.07,0,0,1,97.57,17.91Zm6.21-.85a2.17,2.17,0,0,0-2.23-2.47,2.49,2.49,0,0,0-2.39,2.47Z"/></svg>