<svg id="Layer_1" data-name="Layer 1" xmlns="http://www.w3.org/2000/svg" viewBox="0 0 126 32"><title>Artboard 1 copy 13</title><path d="M6.75,10.29h6.17v1.1H8.22v3.86h4.34v1.09H8.22v5.15H6.75Z"/><path d="M14.35,11.89a.82.82,0,0,1,.89-.84.82.82,0,1,1,0,1.64A.81.81,0,0,1,14.35,11.89Zm.2,2.11h1.36v7.49H14.55Z"/><path d="M18.38,19.35V10h1.36v9.39c0,.85.32,1.2,1.12,1.2a2.94,2.94,0,0,0,.8-.11v1a3.79,3.79,0,0,1-1.14.16C19.05,21.62,18.38,21,18.38,19.35Z"/><path d="M33.84,21.49H32.49v-4.8c0-1.33-.56-1.76-1.44-1.76a2.34,2.34,0,0,0-1.95,1.26v5.3H27.79V16.66c0-1.32-.58-1.73-1.39-1.73a2.62,2.62,0,0,0-2,1.17v5.39H23.05V15.73A12.67,12.67,0,0,0,23,14h1.22a4.19,4.19,0,0,1,.21,1.15,3,3,0,0,1,2.42-1.34A2,2,0,0,1,29,15.28a2.83,2.83,0,0,1,2.38-1.47c1.44,0,2.5.77,2.5,2.73Z"/><path d="M34.51,25.25v-1.1a1.67,1.67,0,0,0,.75.11c1.2,0,1.84-1.12,2.4-2.59l.3-.76L35,14h1.45l2.19,5.39,2-5.39H42l-3.12,7.81C38,24,37.13,25.4,35.31,25.4A1.78,1.78,0,0,1,34.51,25.25Z"/><path d="M43.5,10.29h3.26c2.64,0,4.12,1.36,4.12,3.49s-1.54,3.49-4.18,3.49H45v4.22H43.5Zm3.1,5.89c1.8,0,2.76-.85,2.76-2.4s-.9-2.39-2.69-2.39H45v4.79Z"/><path d="M52.39,15.73c0-.79-.06-1.41-.09-1.73h1.21a3.47,3.47,0,0,1,.21,1,2.51,2.51,0,0,1,2-1.21,2.37,2.37,0,0,1,1,.21v1.2a2.23,2.23,0,0,0-1.1-.26,2.27,2.27,0,0,0-1.83.91v5.62H52.39Z"/><path d="M57.35,17.71a3.57,3.57,0,0,1,3.72-3.9c2.21,0,3.66,1.5,3.66,3.9a3.7,3.7,0,1,1-7.38,0Zm6,0c0-1.74-.87-2.81-2.24-2.81S58.76,16,58.76,17.71s.87,2.88,2.31,2.88S63.31,19.33,63.31,17.71Z"/><path d="M65.43,10.29H67L70.41,19l3.38-8.66h1.53L70.68,21.57H70Z"/><path d="M75.13,21.12V20a4,4,0,0,0,2.22.7c1,0,1.52-.38,1.52-1.14S78,18.5,77.1,18.11c-1.2-.49-1.86-1.12-1.86-2.22,0-1.25,1.06-2.08,2.53-2.08a4.25,4.25,0,0,1,2,.49v1.11a3.53,3.53,0,0,0-2-.61c-.82,0-1.27.38-1.27,1s.64.94,1.54,1.34c1.14.48,2.11,1,2.11,2.3s-1,2.21-2.83,2.21A4.41,4.41,0,0,1,75.13,21.12Z"/><path d="M81.48,17.75c0-2.36,1.41-3.94,3.59-3.94a3.16,3.16,0,0,1,3.26,3.39c0,.27,0,.59,0,.71H82.87c.07,1.66.87,2.72,2.57,2.72A4.25,4.25,0,0,0,88,19.86v1.05a4.49,4.49,0,0,1-2.67.77A3.61,3.61,0,0,1,81.48,17.75ZM87,17a1.92,1.92,0,0,0-2-2.19A2.21,2.21,0,0,0,82.89,17Z"/><path d="M89.77,17.73a3.64,3.64,0,0,1,3.87-3.92,4.15,4.15,0,0,1,2,.49v1.2a3.51,3.51,0,0,0-2-.64c-1.67,0-2.55,1.13-2.55,2.85s.92,2.9,2.52,2.9a3.32,3.32,0,0,0,2-.59v1.15a4,4,0,0,1-2.13.51A3.66,3.66,0,0,1,89.77,17.73Z"/><path d="M104,16.58v4.91h-1.36V16.72c0-1.34-.64-1.79-1.51-1.79A2.76,2.76,0,0,0,99,16.1v5.39H97.67V10H99v5.15a3.21,3.21,0,0,1,2.5-1.31C102.68,13.81,104,14.4,104,16.58Z"/><path d="M106.27,15.74a14.87,14.87,0,0,0-.1-1.74h1.22a3.79,3.79,0,0,1,.2,1.15,3.19,3.19,0,0,1,2.52-1.34c1.16,0,2.51.59,2.51,2.77v4.91h-1.36V16.72c0-1.34-.64-1.79-1.51-1.79a2.73,2.73,0,0,0-2.12,1.17v5.39h-1.36Z"/><path d="M113.27,25.25v-1.1a1.69,1.69,0,0,0,.75.11c1.21,0,1.85-1.12,2.41-2.59l.3-.76-3-6.91h1.44l2.2,5.39,2-5.39h1.41l-3.12,7.81c-.88,2.21-1.79,3.59-3.62,3.59A1.81,1.81,0,0,1,113.27,25.25Z"/></svg>