<svg width="24" height="24" viewBox="0 0 24 24" fill="none" xmlns="http://www.w3.org/2000/svg">
<path fill-rule="evenodd" clip-rule="evenodd" d="M7 2C7.55228 2 8 2.43779 8 2.97783L8 21.0222C8 21.5622 7.55229 22 7 22C6.44772 22 6 21.5622 6 21.0222L6 2.97783C6 2.43779 6.44772 2 7 2Z" fill="white"/>
<path fill-rule="evenodd" clip-rule="evenodd" d="M17 2C17.5523 2 18 2.43779 18 2.97783L18 21.0222C18 21.5622 17.5523 22 17 22C16.4477 22 16 21.5622 16 21.0222L16 2.97783C16 2.43779 16.4477 2 17 2Z" fill="white"/>
</svg>
