<svg id="Layer_1" data-name="Layer 1" xmlns="http://www.w3.org/2000/svg" viewBox="0 0 126 32"><title>Artboard 1 copy 15</title><path d="M28.24,21.54V20a6.22,6.22,0,0,0,3.27,1c1.73,0,2.71-.78,2.71-2.22s-1.27-2-2.87-2.71-3-1.61-3-3.62,1.46-3.23,3.92-3.23a6.59,6.59,0,0,1,3,.69V11.5a5.5,5.5,0,0,0-3-.94c-1.46,0-2.34.61-2.34,1.87s1.22,1.87,2.52,2.49c1.8.83,3.38,1.76,3.38,3.87s-1.65,3.55-4.3,3.55A6.48,6.48,0,0,1,28.24,21.54Z"/><path d="M45.05,13.69,42,17.06l3.34,5.06H43.5l-2.54-4-1.4,1.53v2.47H38v-13h1.53V18l3.71-4.31Z"/><path d="M45.12,26.35V25.11a1.82,1.82,0,0,0,.85.12c1.35,0,2.07-1.26,2.7-2.91l.34-.85-3.35-7.78h1.62l2.47,6.07L52,13.69H53.6l-3.51,8.79c-1,2.48-2,4-4.07,4A2.1,2.1,0,0,1,45.12,26.35Z"/><path d="M59.43,21.54V20a6.25,6.25,0,0,0,3.28,1c1.73,0,2.7-.78,2.7-2.22s-1.26-2-2.86-2.71-3-1.61-3-3.62S61,9.26,63.45,9.26a6.62,6.62,0,0,1,3,.69V11.5a5.53,5.53,0,0,0-3-.94c-1.46,0-2.34.61-2.34,1.87s1.23,1.87,2.52,2.49c1.8.83,3.39,1.76,3.39,3.87s-1.66,3.55-4.31,3.55A6.48,6.48,0,0,1,59.43,21.54Z"/><path d="M69.6,19.78v-5H68.05V13.69H69.6V11.77l1.53-.27v2.19h2.25v1.12H71.13v4.9c0,1,.4,1.44,1.33,1.44a2.5,2.5,0,0,0,1-.18v1.15a3.57,3.57,0,0,1-1.31.22C70.47,22.34,69.6,21.58,69.6,19.78Z"/><path d="M74.59,17.87c0-2.7,1.65-4.39,4.17-4.39s4.13,1.69,4.13,4.39c0,2.54-1.61,4.47-4.13,4.47A4.14,4.14,0,0,1,74.59,17.87Zm6.69,0c0-2-1-3.17-2.52-3.17s-2.59,1.21-2.59,3.17,1,3.24,2.59,3.24S81.28,19.69,81.28,17.87Z"/><path d="M84.9,15.64a17.49,17.49,0,0,0-.11-2h1.37a4.06,4.06,0,0,1,.24,1.15,2.78,2.78,0,0,1,2.19-1.36,2.81,2.81,0,0,1,1.14.23v1.35a2.65,2.65,0,0,0-1.25-.29,2.54,2.54,0,0,0-2,1v6.32H84.9Z"/><path d="M90.52,17.91c0-2.65,1.58-4.43,4-4.43a3.55,3.55,0,0,1,3.67,3.81c0,.31,0,.67,0,.8H92.08c.07,1.87,1,3.06,2.88,3.06a4.79,4.79,0,0,0,2.85-.87v1.19a5.06,5.06,0,0,1-3,.87A4.07,4.07,0,0,1,90.52,17.91Zm6.21-.85a2.18,2.18,0,0,0-2.23-2.47,2.49,2.49,0,0,0-2.4,2.47Z"/></svg>