<svg id="Layer_1" data-name="Layer 1" xmlns="http://www.w3.org/2000/svg" viewBox="0 0 126 32"><title>Artboard 1 copy 9</title><path d="M37.9,15.82c0-3.77,2.47-6.56,6.2-6.56a6.71,6.71,0,0,1,3.42.8v1.58a5.76,5.76,0,0,0-3.35-1c-2.76,0-4.56,2.2-4.56,5.19S41.41,21,44.19,21a6.08,6.08,0,0,0,3.33-1v1.56a7,7,0,0,1-3.41.81C40.35,22.35,37.9,19.78,37.9,15.82Z"/><path d="M49.91,9.52h3.38c4.65,0,7.06,2.44,7.06,6.3s-2.41,6.3-7.06,6.3H49.91Zm3.26,11.36c3.56,0,5.45-1.88,5.45-5.06,0-3.39-1.89-5.06-5.45-5.06h-1.6V20.88Z"/><path d="M62.1,15.82c0-3.89,2.55-6.56,6.26-6.56s6.28,2.67,6.28,6.56-2.53,6.53-6.28,6.53S62.1,19.71,62.1,15.82Zm10.82,0c0-3-1.84-5.19-4.56-5.19s-4.55,2.16-4.55,5.19S65.64,21,68.36,21,72.92,18.84,72.92,15.82Z"/><path d="M78.66,12.76v9.36H77V9.41h.84L86,18.91V9.52h1.62V22.21h-.85Z"/></svg>