<?xml version="1.0" encoding="UTF-8"?>
<svg width="40px" height="40px" viewBox="0 0 40 40" version="1.1" xmlns="http://www.w3.org/2000/svg">
    <g id="Page-1" stroke="none" stroke-width="1" fill="none" fill-rule="evenodd">
            <circle id="Oval" fill-opacity="0.6" fill="#000000" cx="20" cy="20" r="18"></circle>
            <path d="M20,38 C29.9411255,38 38,29.9411255 38,20 C38,10.0588745 29.9411255,2 20,2 C10.0588745,2 2,10.0588745 2,20 C2,29.9411255 10.0588745,38 20,38 Z M20,40 C8.954305,40 0,31.045695 0,20 C0,8.954305 8.954305,0 20,0 C31.045695,0 40,8.954305 40,20 C40,31.045695 31.045695,40 20,40 Z" id="Oval" fill="#FFFFFF"></path>
            <path d="M20.7971147,28.5889695 L17.5642942,25.3140977 L21.5386532,21.5602516 L21.5386532,28.2782003 C21.5386532,28.4566618 21.4319865,28.6166618 21.2699352,28.6843541 C21.2166019,28.7079439 21.1601916,28.7182003 21.1037814,28.7182003 C20.9909608,28.7182003 20.8801916,28.6730721 20.7971147,28.5889695 Z M13.0072685,22.5645593 L11.9918839,22.5645593 C11.0349608,22.5645593 10.2564993,21.7758413 10.2564993,20.8066105 L10.2564993,18.1686618 C10.2564993,17.1994311 11.0349608,16.4107131 11.9918839,16.4107131 L14.8493198,16.4107131 L20.7970121,10.3860977 C20.9211147,10.2599439 21.1077814,10.2209695 21.2698326,10.2907131 C21.4318839,10.3584054 21.5385506,10.5194311 21.5385506,10.696867 L21.5385506,14.5060977 L13.0072685,22.5645593 Z M26.4057301,16.9631234 L27.4898326,15.938508 C28.2077814,17.0277388 28.5862429,18.2338926 28.5862429,19.4872259 C28.5862429,21.6749182 27.4354737,23.7179952 25.3462429,25.2390208 C25.2149608,25.3354311 25.0641916,25.3795336 24.9154737,25.3795336 C24.6877814,25.3795336 24.463166,25.2749182 24.3195762,25.0759439 C24.0816275,24.7477388 24.1554737,24.2862003 24.4826532,24.0462003 C25.6836788,23.1713285 27.1175249,21.66979 27.1175249,19.4872259 C27.1175249,18.5118413 26.8303455,17.6718413 26.4057301,16.9631234 Z M29.6101403,10.6546105 C29.8214224,10.9776875 29.782448,11.4094823 29.4850121,11.6894823 L11.7670634,28.4802516 C11.436807,28.7940977 10.8655249,28.7971747 10.5291147,28.4915336 C10.5239865,28.4874311 10.5188583,28.4853798 10.5147557,28.4802516 C10.4706532,28.4382003 10.4316788,28.3920464 10.3988583,28.3438413 C10.1762942,28.0187131 10.2142429,27.5776875 10.5147557,27.2935849 L28.2327044,10.5028157 C28.2460378,10.490508 28.2614224,10.4812772 28.2757814,10.4699952 C28.3065506,10.4443541 28.3373198,10.4176875 28.3701403,10.3971747 C28.3875762,10.384867 28.4070634,10.3787131 28.4255249,10.3684567 C28.4583455,10.3510208 28.4901403,10.3325593 28.5239865,10.3192259 C28.5434737,10.3120464 28.5650121,10.3079439 28.5844993,10.30179 C28.6183455,10.2915336 28.6532173,10.2792259 28.6880891,10.2730721 C28.7434737,10.2628157 28.8009096,10.2566618 28.8593711,10.2566618 C28.9178326,10.2566618 28.9742429,10.2628157 29.0296275,10.2730721 C29.0675762,10.2792259 29.1034737,10.2915336 29.1393711,10.3038413 C29.1578326,10.3099952 29.1773198,10.3120464 29.1937301,10.3192259 C29.2327044,10.3335849 29.2696275,10.3551234 29.3075762,10.3756362 C29.3209096,10.3828157 29.3342429,10.3879439 29.3475762,10.396149 C29.396807,10.4269182 29.4429608,10.4628157 29.4850121,10.5028157 C29.5352685,10.5499952 29.5742429,10.6012772 29.6101403,10.6546105 Z" id="Combined-Shape" fill="#FFFFFF"></path>
    </g>
</svg>