<svg id="Layer_1" data-name="Layer 1" xmlns="http://www.w3.org/2000/svg" viewBox="0 0 126 32"><title>Artboard 1 copy</title><path d="M16.4,15.82c0-3.77,2.47-6.56,6.2-6.56a6.71,6.71,0,0,1,3.42.8v1.58a5.76,5.76,0,0,0-3.35-1c-2.76,0-4.56,2.2-4.56,5.19S19.91,21,22.69,21A6.08,6.08,0,0,0,26,20v1.56a7,7,0,0,1-3.4.81C18.85,22.35,16.4,19.78,16.4,15.82Z"/><path d="M32.87,9.43h.71L39,22.12H37.21l-1.13-2.7H30.16L29,22.12H27.29Zm2.71,8.76-2.4-6-2.52,6Z"/><path d="M42.21,12.76v9.36H40.59V9.41h.85l8.16,9.5V9.52h1.62V22.21h-.85Z"/><path d="M58.41,9.43h.71l5.4,12.69H62.75l-1.13-2.7H55.7l-1.12,2.7H52.83Zm2.71,8.76-2.4-6-2.52,6Z"/><path d="M66.14,9.52h1.65V20.88h5.67v1.24H66.14Z"/><path d="M72.78,9.52h1.78l3.82,9.74,3.8-9.74h1.73L78.68,22.21h-.75Z"/><path d="M84.5,15.82c0-3.89,2.55-6.56,6.26-6.56s6.29,2.67,6.29,6.56-2.54,6.53-6.29,6.53S84.5,19.71,84.5,15.82Zm10.82,0c0-3-1.84-5.19-4.56-5.19s-4.55,2.16-4.55,5.19S88,21,90.76,21,95.32,18.84,95.32,15.82Z"/><path d="M99.44,9.52h3.38c4.65,0,7.06,2.44,7.06,6.3s-2.41,6.3-7.06,6.3H99.44Zm3.26,11.36c3.56,0,5.45-1.88,5.45-5.06,0-3.39-1.89-5.06-5.45-5.06h-1.61V20.88Z"/></svg>