<svg id="Layer_1" data-name="Layer 1" xmlns="http://www.w3.org/2000/svg" viewBox="0 0 126 32"><title>Artboard 1 copy 12</title><path d="M27.21,9.52H30.6c4.64,0,7,2.44,7,6.3s-2.41,6.3-7,6.3H27.21Zm3.26,11.36c3.57,0,5.46-1.88,5.46-5.06,0-3.39-1.89-5.06-5.46-5.06h-1.6V20.88Z"/><path d="M38.23,9.52H40l3.82,9.74,3.8-9.74h1.72L44.13,22.21h-.75Z"/><path d="M51,9.52h3.39c4.64,0,7,2.44,7,6.3s-2.41,6.3-7,6.3H51Zm3.26,11.36c3.56,0,5.46-1.88,5.46-5.06,0-3.39-1.9-5.06-5.46-5.06h-1.6V20.88Z"/><path d="M68.61,9.41h.83l5.69,7.9,5.65-7.9h.83V22.12H80V13l-4.61,6.36h-.56L70.23,13v9.13H68.61Z"/><path d="M83.82,19.63c0-1.51,1.31-2.66,3.44-2.66a4.34,4.34,0,0,1,1.67.27v-.77c0-1.23-.59-1.88-2-1.88a5.78,5.78,0,0,0-2.48.63V14a6.56,6.56,0,0,1,2.75-.54c2.09,0,3.23.93,3.23,2.79V20c0,.88.27,1.28.7,1.28a1,1,0,0,0,.43-.11V22a1.64,1.64,0,0,1-.94.22A1.46,1.46,0,0,1,89,21a2.66,2.66,0,0,1-2.48,1.29A2.49,2.49,0,0,1,83.82,19.63Zm5.11.2V18.16a3.67,3.67,0,0,0-1.42-.24c-1.44,0-2.09.72-2.09,1.7A1.37,1.37,0,0,0,87,21.13,2.18,2.18,0,0,0,88.93,19.83Z"/><path d="M95.58,17.73l-3-4h1.73l2.09,3,2.07-3h1.69l-3,4.07,3.21,4.36H98.73l-2.34-3.3-2.31,3.3H92.39Z"/></svg>