<svg id="Layer_1" data-name="Layer 1" xmlns="http://www.w3.org/2000/svg" viewBox="0 0 126 32"><title>Artboard 1 copy 14</title><path d="M11,10.29h3.27c2.64,0,4.11,1.36,4.11,3.49s-1.54,3.49-4.18,3.49H12.44v4.22H11Zm3.11,5.89c1.79,0,2.75-.85,2.75-2.4s-.9-2.39-2.69-2.39h-1.7v4.79Z"/><path d="M20,19.35V10h1.36v9.39c0,.85.32,1.2,1.12,1.2a2.82,2.82,0,0,0,.8-.11v1a3.71,3.71,0,0,1-1.13.16C20.64,21.62,20,21,20,19.35Z"/><path d="M24.07,19.28c0-1.34,1.17-2.37,3.06-2.37a4.05,4.05,0,0,1,1.49.24v-.68c0-1.09-.53-1.67-1.76-1.67a5.16,5.16,0,0,0-2.21.56V14.29a5.84,5.84,0,0,1,2.45-.48c1.86,0,2.86.83,2.86,2.48v3.28c0,.78.24,1.14.63,1.14a.78.78,0,0,0,.38-.1v.79a1.44,1.44,0,0,1-.83.19,1.3,1.3,0,0,1-1.44-1.12,2.38,2.38,0,0,1-2.21,1.15A2.22,2.22,0,0,1,24.07,19.28Zm4.55.18V18a3.37,3.37,0,0,0-1.26-.21c-1.29,0-1.86.64-1.86,1.51a1.21,1.21,0,0,0,1.36,1.34A1.94,1.94,0,0,0,28.62,19.46Z"/><path d="M32.73,19.41V15H31.35V14h1.38V12.29l1.36-.24V14h2v1h-2v4.36c0,.92.35,1.28,1.19,1.28a2.43,2.43,0,0,0,.88-.16v1a3.16,3.16,0,0,1-1.17.19A2,2,0,0,1,32.73,19.41Z"/><path d="M37.19,17.75c0-2.36,1.41-3.94,3.59-3.94a3.17,3.17,0,0,1,3.27,3.39c0,.27,0,.59,0,.71H38.59c.06,1.66.86,2.72,2.56,2.72a4.28,4.28,0,0,0,2.53-.77v1.06a4.61,4.61,0,0,1-2.68.76A3.62,3.62,0,0,1,37.19,17.75ZM42.72,17a1.93,1.93,0,0,0-2-2.19A2.22,2.22,0,0,0,38.6,17Z"/><path d="M52.08,14l-2.76,3,3,4.5H50.7l-2.26-3.55L47.19,19.3v2.19H45.83V10h1.36v7.86L50.49,14Z"/><path d="M52.86,17.71a3.56,3.56,0,0,1,3.71-3.9c2.21,0,3.67,1.5,3.67,3.9a3.7,3.7,0,1,1-7.38,0Zm6,0c0-1.74-.86-2.81-2.24-2.81s-2.3,1.07-2.3,2.81.86,2.88,2.3,2.88S58.81,19.33,58.81,17.71Z"/><path d="M72.81,21.49H71.47v-4.8c0-1.33-.56-1.76-1.44-1.76a2.33,2.33,0,0,0-2,1.26v5.3H66.76V16.66c0-1.32-.57-1.73-1.39-1.73a2.61,2.61,0,0,0-2,1.17v5.39H62V15.73a14.64,14.64,0,0,0-.1-1.73h1.22a5.2,5.2,0,0,1,.21,1.15,3,3,0,0,1,2.41-1.34,2,2,0,0,1,2.16,1.47,2.86,2.86,0,0,1,2.39-1.47c1.44,0,2.49.77,2.49,2.74Z"/><path d="M75,15.91a16,16,0,0,0-.1-1.91H76a3.56,3.56,0,0,1,.19.91,3,3,0,0,1,2.39-1.1c2.08,0,3.39,1.57,3.39,3.86s-1.36,4-3.45,4a3,3,0,0,1-2.23-.91v4.48H75Zm5.62,1.76c0-1.83-.83-2.82-2.29-2.82a2.64,2.64,0,0,0-2,1v3.81a2.58,2.58,0,0,0,1.94,1.05C79.74,20.69,80.59,19.51,80.59,17.67Z"/><path d="M83.21,19.28c0-1.34,1.17-2.37,3.06-2.37a4.09,4.09,0,0,1,1.49.24v-.68c0-1.09-.53-1.67-1.77-1.67a5.15,5.15,0,0,0-2.2.56V14.29a5.79,5.79,0,0,1,2.44-.48c1.86,0,2.87.83,2.87,2.48v3.28c0,.78.24,1.14.62,1.14a.86.86,0,0,0,.39-.1v.79a1.48,1.48,0,0,1-.83.19,1.3,1.3,0,0,1-1.44-1.12,2.39,2.39,0,0,1-2.21,1.15A2.22,2.22,0,0,1,83.21,19.28Zm4.55.18V18a3.39,3.39,0,0,0-1.27-.21c-1.28,0-1.86.64-1.86,1.51A1.22,1.22,0,0,0,86,20.61,2,2,0,0,0,87.76,19.46Z"/><path d="M91.51,15.75A15.75,15.75,0,0,0,91.42,14h1.21a3.39,3.39,0,0,1,.21,1.15,3.19,3.19,0,0,1,2.52-1.34c1.16,0,2.51.59,2.51,2.77v4.91H96.51V16.72c0-1.34-.64-1.79-1.51-1.79a2.76,2.76,0,0,0-2.13,1.17v5.39H91.51Z"/><path d="M100,11.89a.9.9,0,0,1,1.79,0,.9.9,0,0,1-1.79,0Zm.21,2.11h1.36v7.49h-1.36Z"/><path d="M103.59,17.75c0-2.36,1.41-3.94,3.59-3.94a3.16,3.16,0,0,1,3.26,3.39c0,.27,0,.59,0,.71H105c.06,1.66.86,2.72,2.56,2.72a4.28,4.28,0,0,0,2.53-.77v1.06a4.61,4.61,0,0,1-2.68.76A3.61,3.61,0,0,1,103.59,17.75Zm5.53-.76a1.93,1.93,0,0,0-2-2.19A2.22,2.22,0,0,0,105,17Z"/><path d="M112.78,19.41V15H111.4V14h1.38V12.29l1.36-.24V14h2v1h-2v4.36c0,.92.35,1.28,1.18,1.28a2.34,2.34,0,0,0,.88-.16v1a3.16,3.16,0,0,1-1.17.19A2,2,0,0,1,112.78,19.41Z"/></svg>