<svg id="Layer_1" data-name="Layer 1" xmlns="http://www.w3.org/2000/svg" viewBox="0 0 126 32"><title>Artboard 1 copy 6</title><path d="M30.06,9.52h3.38c4.65,0,7.06,2.44,7.06,6.3s-2.41,6.3-7.06,6.3H30.06Zm3.26,11.36c3.56,0,5.45-1.88,5.45-5.06,0-3.39-1.89-5.06-5.45-5.06H31.71V20.88Z"/><path d="M42.6,11.32a.93.93,0,0,1,1-.94.92.92,0,1,1,0,1.84A.91.91,0,0,1,42.6,11.32Zm.24,2.37h1.53v8.43H42.84Z"/><path d="M46.62,21.71V20.43a4.44,4.44,0,0,0,2.5.79c1.1,0,1.71-.43,1.71-1.28s-1-1.19-2-1.62c-1.35-.56-2.09-1.26-2.09-2.5,0-1.41,1.19-2.34,2.85-2.34a4.67,4.67,0,0,1,2.3.56v1.24a3.94,3.94,0,0,0-2.25-.69c-.92,0-1.42.44-1.42,1.16s.72,1.06,1.73,1.51c1.27.54,2.37,1.15,2.37,2.59s-1.17,2.49-3.18,2.49A5,5,0,0,1,46.62,21.71Z"/><path d="M53.76,17.89a4.1,4.1,0,0,1,4.36-4.41,4.57,4.57,0,0,1,2.3.56v1.34a4,4,0,0,0-2.19-.71c-1.88,0-2.87,1.26-2.87,3.2s1,3.26,2.83,3.26a3.71,3.71,0,0,0,2.23-.67v1.3a4.6,4.6,0,0,1-2.39.58A4.12,4.12,0,0,1,53.76,17.89Z"/><path d="M62.11,21.71V20.43a4.49,4.49,0,0,0,2.51.79c1.09,0,1.71-.43,1.71-1.28s-1-1.19-2-1.62c-1.35-.56-2.09-1.26-2.09-2.5,0-1.41,1.19-2.34,2.84-2.34a4.68,4.68,0,0,1,2.31.56v1.24a4,4,0,0,0-2.25-.69c-.92,0-1.42.44-1.42,1.16s.72,1.06,1.72,1.51c1.28.54,2.38,1.15,2.38,2.59s-1.17,2.49-3.19,2.49A5.06,5.06,0,0,1,62.11,21.71Z"/><path d="M77,16.59v5.53H75.42V16.75c0-1.51-.72-2-1.7-2a3.09,3.09,0,0,0-2.39,1.31v6.07H69.8v-13h1.51V15a3.64,3.64,0,0,1,2.81-1.47C75.43,13.48,77,14.14,77,16.59Z"/><path d="M78.89,17.87c0-2.7,1.66-4.39,4.18-4.39s4.12,1.69,4.12,4.39c0,2.54-1.6,4.47-4.12,4.47A4.14,4.14,0,0,1,78.89,17.87Zm6.7,0c0-2-1-3.17-2.52-3.17s-2.6,1.21-2.6,3.17,1,3.24,2.6,3.24S85.59,19.69,85.59,17.87Z"/><path d="M89.09,15.84c0-1-.07-1.88-.1-2.15H90.3a4.74,4.74,0,0,1,.22,1,3.35,3.35,0,0,1,2.68-1.24c2.34,0,3.82,1.76,3.82,4.34s-1.53,4.5-3.89,4.5a3.35,3.35,0,0,1-2.51-1v5H89.09Zm6.32,2c0-2.06-.93-3.17-2.57-3.17a3,3,0,0,0-2.22,1.1V20a2.93,2.93,0,0,0,2.18,1.19C94.46,21.22,95.41,19.89,95.41,17.82Z"/></svg>