<svg viewBox="0 0 40 40" version="1.1" xmlns="http://www.w3.org/2000/svg" xmlns:xlink="http://www.w3.org/1999/xlink">
	<path d="M20,0 C8.95411177,0 0,8.95411177 0,20 C0,28.1908224 4.92321672,35.2258065 11.9709223,38.3189459 C11.9164016,36.9232167 11.9600182,35.2457974 12.3198546,33.7283053 C12.7033167,32.1017719 14.8932303,22.8278055 14.8932303,22.8278055 C14.8932303,22.8278055 14.2535211,21.5520218 14.2535211,19.6637892 C14.2535211,16.699682 15.9727397,14.4861427 18.1117674,14.4861427 C19.9291231,14.4861427 20.8087233,15.8527942 20.8087233,17.4884144 C20.8087233,19.3166742 19.6419809,22.053612 19.0422535,24.5870059 C18.5424807,26.7078601 20.107224,28.4379827 22.1990005,28.4379827 C25.9900045,28.4379827 28.541572,23.571104 28.541572,17.8046343 C28.541572,13.4229896 25.5901863,10.1408451 20.2199,10.1408451 C14.1517492,10.1408451 10.3734666,14.6660609 10.3734666,19.7201272 C10.3734666,21.461154 10.8859609,22.6896865 11.6910495,23.6419809 C12.0617901,24.0781463 12.1126761,24.2544298 11.9781917,24.75602 C11.8818719,25.1231259 11.6619718,26.0099955 11.5729214,26.3625625 C11.4366197,26.8677874 11.0277147,27.0495229 10.569741,26.8623353 C7.77464789,25.7210359 6.47342117,22.6606088 6.47342117,19.2203544 C6.47342117,13.5393003 11.2657883,6.72603362 20.7687415,6.72603362 C28.4052703,6.72603362 33.430259,12.2526124 33.430259,18.1844616 C33.430259,26.0299864 29.0686052,31.8909587 22.6388005,31.8909587 C20.4779646,31.8909587 18.4479782,30.7242163 17.7519309,29.3993639 C17.7519309,29.3993639 16.5906406,34.0063607 16.3452976,34.8968651 C15.9200363,36.4379827 15.0895048,37.9791004 14.3316674,39.1803726 C16.1308496,39.7128578 18.0318037,40.0018174 20,40.0018174 C31.0458882,40.0018174 40,31.0458882 40,20 C40,8.95411177 31.0458882,0 20,0" id="Icon-Social-Pinterest" fill="#000000"></path>
</svg>