<?xml version="1.0" encoding="utf-8"?>
<!-- Generator: Adobe Illustrator 24.0.1, SVG Export Plug-In . SVG Version: 6.00 Build 0)  -->
<svg version="1.1" id="Layer_1" xmlns="http://www.w3.org/2000/svg" xmlns:xlink="http://www.w3.org/1999/xlink" x="0px" y="0px"
	 viewBox="0 0 126 32" style="enable-background:new 0 0 126 32;" xml:space="preserve">
<style type="text/css">
	.st0{fill:none;}
</style>
<title>amazon_prime_video</title>
<rect x="0" class="st0" width="126" height="32"/>
<g>
	<g>
		<path d="M21.1,15.6c1.4,1.9,2.8,3.7,4.2,5.6c-0.2,0-0.3,0-0.3,0c-1,0-2,0-3,0c-0.2,0-0.3-0.1-0.5-0.2c-1.1-1.4-2.2-2.9-3.2-4.3
			c-0.1-0.1-0.1-0.2-0.2-0.2c-0.6,0-1.2,0-1.8,0c0,0.1,0,0.3,0,0.4c0,1.3,0,2.5,0,3.8c0,0.1,0,0.1,0,0.2c0,0.3,0,0.4-0.3,0.4
			c-0.8,0-1.5,0-2.3,0c-0.1,0-0.2,0-0.2,0c-0.1-0.3-0.1-14.5,0-15.2c0.1,0,0.2,0,0.2,0C15,6,16.5,6,18,6c1.2,0,2.3,0.4,3.3,1.2
			c1,0.9,1.7,2,1.9,3.3c0.2,1.5-0.1,2.8-1,4c-0.3,0.4-0.6,0.7-1,1C21.1,15.5,21.1,15.5,21.1,15.6z M16.1,9c0,0.4,0,0.8,0,1.2
			c0,0.4,0,0.8,0,1.1c0,0.4,0,0.8,0,1.2c0,0.4,0,0.8,0,1.2c0.7,0,1.3,0,1.9,0c0.7,0,1.3-0.4,1.8-0.9c0.4-0.5,0.5-1,0.4-1.6
			c0-0.4-0.2-0.8-0.4-1.1c-0.5-0.7-1.2-1-2-1c-0.4,0-0.9,0-1.3,0C16.4,9,16.3,9,16.1,9z"/>
		<path d="M34.8,21.2c-0.9,0-1.8,0-2.8,0c0-0.2,0-0.3,0-0.4c-0.1,0-0.1,0.1-0.2,0.1c-0.5,0.3-1.1,0.6-1.7,0.6
			c-0.6,0.1-1.3,0-1.9-0.1c-1-0.3-1.8-0.8-2.5-1.5C25,19,24.5,18.1,24.2,17c-0.2-0.8-0.3-1.7-0.2-2.5c0.2-1.8,0.9-3.3,2.2-4.4
			c0.7-0.6,1.6-1,2.6-1.2c1.1-0.2,2,0.1,2.9,0.6c0.1,0,0.2,0.1,0.3,0.1c0-0.1,0-0.2,0-0.2c0-0.2,0-0.3,0.3-0.3c0.8,0,1.6,0,2.4,0
			c0,0,0.1,0,0.1,0C34.8,13.1,34.8,17.2,34.8,21.2z M29.6,18.5c0.3,0,0.6,0,0.9-0.2c0.4-0.2,0.7-0.5,1-0.9c0.4-0.6,0.6-1.3,0.6-2.1
			c0-0.6,0-1.1-0.2-1.6c-0.2-0.5-0.4-1-0.8-1.4c-0.7-0.7-1.8-0.8-2.6-0.4c-0.7,0.4-1.1,0.9-1.3,1.6c-0.3,0.8-0.4,1.6-0.2,2.4
			c0.1,0.5,0.2,1,0.5,1.4C28,18.1,28.6,18.6,29.6,18.5z"/>
		<path d="M39.3,16.5c0,1.6,0,3.2,0,4.8c-0.1,0-0.2,0-0.2,0c-0.8,0-1.6,0-2.4,0c-0.3,0-0.3,0-0.3-0.3c0-0.1,0-0.1,0-0.2
			c0-5.1,0-10.2,0-15.2c0-0.1,0-0.3,0-0.4c1,0,1.9,0,2.9,0c0,0,0,0.1,0.1,0.1c0,0,0,0,0,0c0,0,0,0.1,0,0.1c0,2.6,0,5.2,0,7.8
			c0,0,0,0,0,0.1c0.4-0.5,0.8-1,1.2-1.5c0.6-0.8,1.3-1.6,1.9-2.4C42.5,9.1,42.6,9,42.9,9c1.1,0,2.2,0,3.2,0c0.1,0,0.2,0,0.4,0
			c-0.4,0.5-0.8,1-1.2,1.5c-0.4,0.5-0.8,0.9-1.2,1.4c-0.4,0.5-0.8,0.9-1.1,1.4c-0.4,0.5-0.8,0.9-1.2,1.4c1.8,2.1,3.6,4.3,5.5,6.4
			c-0.1,0-0.2,0.1-0.2,0.1c-1.2,0-2.3,0-3.5,0c-0.1,0-0.2,0-0.3-0.2c-0.9-1.1-1.8-2.2-2.7-3.3c-0.3-0.4-0.7-0.8-1-1.2
			C39.4,16.5,39.4,16.5,39.3,16.5C39.4,16.4,39.3,16.4,39.3,16.5z"/>
		<path d="M97,10.6c-0.1,0-0.2,0-0.3,0c-1.1,0.2-2.1,0.6-3.1,1c-0.5,0.2-1.1,0.2-1.6,0.1c-0.4-0.1-0.8-0.3-1-0.7
			c-0.2-0.4-0.3-0.8-0.1-1.3c0.3-0.7,0.9-1,1.5-1.2C93,8.3,93.7,8.2,94.3,8c0.9-0.3,1.7-0.5,2.6-0.8c1.4-0.5,2.7-0.9,4.1-1.4
			c0.6-0.2,1.2-0.5,1.9-0.7c1-0.4,2.1-0.6,3.1-0.5c0.4,0,0.8,0.1,1.2,0.3c0.5,0.3,0.8,0.8,0.8,1.4c0.1,1-0.2,1.9-0.8,2.7
			c-0.4,0.5-0.9,0.8-1.4,1c-0.5,0.2-0.9-0.2-0.8-0.7c0-0.2,0.1-0.3,0.1-0.5c0-0.1,0.1-0.2,0.1-0.4c0.1-0.5-0.3-0.9-0.8-0.7
			c-0.5,0.2-1.1,0.3-1.6,0.5c-0.7,0.3-1.5,0.7-2.2,1c-0.1,0-0.1,0.1-0.2,0.1c-0.4,0.2-0.5,0.4-0.5,0.8c0.1,0.5,0.1,1.1,0.1,1.6
			c0,0.1,0,0.2,0,0.2c0,0.6,0,1.1,0.1,1.7c0.1,1.4,0.2,2.8,0.1,4.2c0,0.9-0.2,1.7-0.5,2.5c-0.1,0.3-0.3,0.5-0.5,0.8
			c-0.2,0.2-0.4,0.2-0.6,0.3c-0.4,0.1-0.7-0.1-0.9-0.4c-0.2-0.4-0.3-0.9-0.3-1.3c0-0.6-0.1-1.2-0.1-1.9c0-0.5,0-1-0.1-1.5
			c0-0.5,0-1.1-0.1-1.6c0-0.5,0-1.1-0.1-1.6c0-0.5,0-1.1-0.1-1.6C97.1,11.2,97,10.9,97,10.6z"/>
		<path d="M68.1,16.1c0,0.4,0.2,0.8,0.3,1.1c0.3,0.6,0.8,1.1,1.4,1.4c0.9,0.4,1.8,0.3,2.6-0.2c0.4-0.2,0.6-0.6,0.9-0.9
			c0,0,0.1-0.1,0.1-0.1c0.8,0.5,1.6,0.9,2.5,1.4c-0.2,0.2-0.3,0.4-0.5,0.6c-0.9,1-1.9,1.7-3.2,2c-1.4,0.3-2.7,0.1-3.9-0.6
			c-1.1-0.6-1.9-1.5-2.4-2.6c-0.4-0.9-0.7-1.9-0.7-2.9c0-0.9,0.1-1.9,0.4-2.7c0.3-0.9,0.7-1.6,1.4-2.3c0.8-0.8,1.8-1.3,2.9-1.5
			C71,8.7,72,8.8,73,9.3c1.3,0.6,2.1,1.7,2.6,3c0.4,1,0.5,2,0.4,3c0,0.2,0,0.4-0.1,0.5c0,0.1-0.1,0.2-0.2,0.2c-0.1,0-0.2,0-0.3,0
			c-2.3,0-4.7,0-7,0C68.3,16.1,68.2,16.1,68.1,16.1z M68.2,13.5c1.1,0.1,4.5,0,4.8,0c-0.1-0.9-0.9-1.9-2.1-2
			C69.6,11.3,68.4,12.2,68.2,13.5z"/>
		<path d="M27.9,23.5c0.3-0.1,44.1-0.1,44.6,0c-0.2,0-0.4,0.1-0.7,0.1c-0.4,0-0.9,0.1-1.3,0.1c-0.3,0-0.6,0.1-0.8,0.1
			c-0.4,0-0.8,0-1.2,0.1c-0.6,0.1-1.3,0.1-1.9,0.2c-0.3,0-0.6,0.1-0.9,0.1c-0.7,0.1-1.3,0.1-2,0.1c-0.8,0.1-1.6,0.1-2.4,0.2
			c-0.8,0.1-1.5,0.1-2.3,0.2c-0.8,0.1-1.6,0.1-2.4,0.2c-0.8,0.1-1.5,0.1-2.3,0.2c-0.8,0.1-1.6,0.1-2.4,0.2c-0.8,0.1-1.6,0.1-2.4,0.2
			c-0.8,0.1-1.5,0.1-2.3,0.2c-0.8,0.1-1.6,0.1-2.4,0.2C44,26,43.3,26,42.5,26.1c-0.8,0.1-1.6,0.1-2.3,0.2c-0.8,0.1-1.6,0.1-2.4,0.2
			c-0.8,0.1-1.6,0.1-2.4,0.2c-0.5,0-1,0.1-1.5,0.1c-0.6,0.1-1.3,0.1-1.9,0.2c-0.3,0-0.5,0-0.7-0.2c-1-1-2-2-3-3
			C28.1,23.7,28,23.6,27.9,23.5z"/>
		<path d="M46.9,9.1c0.1,0,0.2,0,0.3,0c0.7,0,1.4,0,2.2,0c0.1,0,0.1,0,0.2,0c0.1,0,0.1,0.1,0.1,0.2c0,0.1,0,0.2,0,0.3
			c0,2.3,0,4.5,0,6.8c0,0.9,0.4,1.5,1.1,2c0.8,0.5,1.9,0.3,2.6-0.3c0.5-0.5,0.8-1.2,0.8-1.9c0-2.2,0-4.5,0-6.7c0-0.1,0-0.2,0-0.4
			c0.2-0.1,2.3-0.1,2.8,0c0.1,0.2,0.1,11.6,0,12.1c-0.2,0.1-2.3,0.1-2.8,0c0-0.1,0-0.2,0-0.3C54,20.9,53.9,21,53.8,21
			c-0.8,0.4-1.6,0.6-2.5,0.5c-1.1-0.1-2-0.5-2.8-1.2c-0.9-0.8-1.4-1.9-1.6-3c0-0.2-0.1-0.5-0.1-0.7c0-2.4,0-4.8,0-7.2
			C46.9,9.3,46.9,9.2,46.9,9.1z"/>
		<path d="M87.1,21.2c-1,0-1.9,0-2.8,0c-0.1-0.1-0.1-0.3-0.1-0.4c0-2.3,0-4.5,0-6.8c0-0.7-0.2-1.3-0.8-1.8c-0.4-0.3-0.8-0.5-1.3-0.5
			c-0.4,0-0.7,0-1,0.2c-0.6,0.3-1.1,0.9-1.2,1.6c-0.1,0.3-0.1,0.5-0.1,0.8c0,2.2,0,4.4,0,6.6c0,0.1,0,0.2,0,0.4
			c-0.2,0.1-2.3,0.1-2.8,0c0,0,0,0,0,0c0,0,0,0,0,0c0-4,0-7.9,0-11.9c0-0.1,0-0.1,0-0.2c0.1,0,0.2,0,0.3,0c0.7,0,1.4,0,2,0
			c0.4,0,0.4,0,0.5,0.4c0.3-0.1,0.5-0.2,0.8-0.3c0.8-0.3,1.6-0.4,2.4-0.2c0.9,0.2,1.7,0.6,2.3,1.2c0.6,0.5,1,1.1,1.3,1.8
			c0.3,0.7,0.4,1.5,0.4,2.3c0,2.2,0,4.4,0,6.6C87.1,20.9,87.1,21.1,87.1,21.2z"/>
		<path d="M106.7,16.5c0.4-1.1,0.7-2.1,1-3.1c0.5-1.4,1-2.8,1.7-4.1c0.4-0.7,0.8-1.4,1.4-1.9c0.2-0.2,0.5-0.4,0.9-0.5
			c0.6-0.1,1.1,0.3,1.1,0.9c0,0.5-0.1,1-0.2,1.4c-0.2,0.7-0.5,1.4-0.8,2c-0.4,0.9-0.8,1.8-1.1,2.6c-0.5,1.3-1.1,2.7-1.5,4
			c-0.4,1.1-0.7,2.3-1,3.5c-0.1,0.3-0.2,0.7-0.4,1c-0.2,0.4-0.5,0.6-1,0.7c-0.3,0.1-0.6-0.1-0.8-0.4c-0.2-0.3-0.4-0.6-0.5-1
			c-0.3-1-0.6-1.9-1-2.9c-0.2-0.7-0.5-1.4-0.8-2c-0.4-1.1-0.9-2.1-1.3-3.2c-0.2-0.6-0.4-1.2-0.4-1.8c0-0.5,0.3-0.9,0.8-1.1
			c0.3-0.1,0.7,0,0.9,0.2c0.3,0.2,0.6,0.5,0.8,0.9c0.4,0.6,0.8,1.3,1,2.1c0.3,0.8,0.6,1.6,0.9,2.4C106.6,16.2,106.6,16.3,106.7,16.5
			z"/>
		<path d="M59.3,6c1,0,1.9,0,2.8,0c0,0.3,0,0.7,0,1c0,0.3,0,0.7,0,1c0,0.3,0,0.7,0,1c0.1,0,0.2,0,0.3,0c0.6,0,1.2,0,1.7,0
			c0.3,0,0.3,0,0.3,0.3c0,0.8,0,1.6,0,2.4c0,0.3,0,0.3-0.3,0.3c-0.6,0-1.1,0-1.7,0c-0.1,0-0.2,0-0.4,0c0,0.1,0,0.2,0,0.3
			c0,1.6,0,3.2,0,4.8c0,0.3,0.1,0.7,0.3,0.9c0.4,0.5,1,0.6,1.6,0.4c0.1,0,0.2-0.1,0.4-0.2c0.6,0.8,1.2,1.6,1.8,2.4
			c-0.1,0.1-0.2,0.1-0.3,0.2C65,21.4,64,21.6,63,21.5c-0.6-0.1-1.2-0.3-1.7-0.6c-1.1-0.7-1.7-1.6-1.9-2.9c0-0.3-0.1-0.5-0.1-0.8
			c0-1.6,0-3.2,0-4.8c0-0.1,0-0.2,0-0.4c-0.5,0-0.9,0-1.4,0c-0.1-0.3-0.1-2.6,0-3c0.4,0,0.9,0,1.4,0c0-0.3,0-0.7,0-1
			c0-0.3,0-0.7,0-1C59.3,6.7,59.3,6.4,59.3,6z"/>
	</g>
</g>
</svg>
