<svg id="Layer_1" data-name="Layer 1" xmlns="http://www.w3.org/2000/svg" viewBox="0 0 126 32"><title>Artboard 1 copy 11</title><path d="M18.36,21.54V20a6.28,6.28,0,0,0,3.28,1c1.73,0,2.7-.78,2.7-2.22s-1.26-2-2.86-2.71-3-1.61-3-3.62,1.46-3.23,3.93-3.23a6.59,6.59,0,0,1,3,.69V11.5a5.5,5.5,0,0,0-2.95-.94c-1.46,0-2.34.61-2.34,1.87s1.22,1.87,2.52,2.49c1.8.83,3.38,1.76,3.38,3.87s-1.66,3.54-4.3,3.54A6.54,6.54,0,0,1,18.36,21.54Z"/><path d="M26.9,13.69h1.6l2,5.78,2.29-5.78h.59l2.33,5.78,2-5.78h1.58L36,22.21h-.59l-2.34-5.85-2.36,5.85h-.59Z"/><path d="M40.63,11.32a.93.93,0,0,1,1-.94.92.92,0,1,1,0,1.84A.91.91,0,0,1,40.63,11.32Zm.23,2.37H42.4v8.43H40.86Z"/><path d="M44.52,19.63C44.52,18.12,45.83,17,48,17a4.34,4.34,0,0,1,1.67.27v-.77c0-1.23-.59-1.88-2-1.88a5.78,5.78,0,0,0-2.48.63V14a6.52,6.52,0,0,1,2.75-.54c2.09,0,3.22.93,3.22,2.79V20c0,.88.27,1.28.71,1.28a1,1,0,0,0,.43-.11V22a1.64,1.64,0,0,1-.94.22A1.46,1.46,0,0,1,49.72,21a2.66,2.66,0,0,1-2.48,1.29A2.49,2.49,0,0,1,44.52,19.63Zm5.11.2V18.16a3.71,3.71,0,0,0-1.42-.24c-1.44,0-2.09.72-2.09,1.7a1.37,1.37,0,0,0,1.53,1.51A2.18,2.18,0,0,0,49.63,19.83Z"/><path d="M54.26,19.78v-5H52.71V13.69h1.55V11.77l1.53-.27v2.19H58v1.12H55.79v4.9c0,1,.39,1.44,1.33,1.44a2.5,2.5,0,0,0,1-.18v1.15a3.61,3.61,0,0,1-1.31.21C55.12,22.33,54.26,21.58,54.26,19.78Z"/><path d="M67,13.69l-3.1,3.37,3.33,5.06H65.4l-2.54-4-1.4,1.53v2.47H59.93v-13h1.53V18l3.71-4.31Z"/><path d="M68.24,21.71V20.43a4.49,4.49,0,0,0,2.51.79c1.09,0,1.71-.43,1.71-1.28s-1-1.19-2-1.62c-1.35-.56-2.09-1.26-2.09-2.5,0-1.41,1.19-2.34,2.84-2.34a4.68,4.68,0,0,1,2.31.56v1.24a4,4,0,0,0-2.25-.69c-.92,0-1.42.44-1.42,1.16s.72,1.06,1.72,1.51c1.28.54,2.38,1.15,2.38,2.59s-1.17,2.48-3.19,2.48A5.07,5.07,0,0,1,68.24,21.71Z"/><path d="M75.86,11.32a.92.92,0,0,1,1-.94.92.92,0,1,1,0,1.84A.91.91,0,0,1,75.86,11.32Zm.23,2.37h1.53v8.43H76.09Z"/><path d="M79.74,19.63c0-1.51,1.32-2.66,3.44-2.66a4.42,4.42,0,0,1,1.68.27v-.77c0-1.23-.6-1.88-2-1.88a5.79,5.79,0,0,0-2.49.63V14a6.57,6.57,0,0,1,2.76-.54c2.09,0,3.22.93,3.22,2.79V20c0,.88.27,1.28.7,1.28a1,1,0,0,0,.43-.11V22a1.58,1.58,0,0,1-.93.22A1.46,1.46,0,0,1,85,21a2.69,2.69,0,0,1-2.49,1.29A2.49,2.49,0,0,1,79.74,19.63Zm5.12.2V18.16a3.71,3.71,0,0,0-1.42-.24c-1.45,0-2.09.72-2.09,1.7a1.37,1.37,0,0,0,1.53,1.51A2.18,2.18,0,0,0,84.86,19.83Z"/><path d="M88.73,21.54,93,14.81H88.89V13.69H95v.58L90.72,21h4.47v1.12H88.73Z"/><path d="M104,13.69l-3.09,3.37,3.33,5.06h-1.79l-2.54-4-1.4,1.53v2.47H97v-13H98.5V18l3.71-4.31Z"/><path d="M105.57,11.32a1,1,0,1,1,1,.9A.92.92,0,0,1,105.57,11.32Zm.24,2.37h1.53v8.43h-1.53Z"/></svg>