<?xml version="1.0" encoding="utf-8"?>
<!-- Generator: Adobe Illustrator 24.0.1, SVG Export Plug-In . SVG Version: 6.00 Build 0)  -->
<svg version="1.1" id="Layer_1" xmlns="http://www.w3.org/2000/svg" xmlns:xlink="http://www.w3.org/1999/xlink" x="0px" y="0px"
	 viewBox="0 0 126 32" style="enable-background:new 0 0 126 32;" xml:space="preserve">
<style type="text/css">
	.st0{fill:none;}
	.st1{fill:none;stroke:#000000;stroke-width:0.34;}
</style>
<title>Artboard 1</title>
<rect id="Rectangle" x="0.05" y="-0.01" class="st0" width="126" height="32"/>
<path d="M58.4,9.61c-0.77,0-0.67,4.22-0.6,5.06s0.22,1,0.82,1.11s0.71-0.9,0.66-1.31S59.52,9.63,58.4,9.61z"/>
<path d="M63.3,10.86c1.35-0.09,2.85-0.13,2.86-0.9s-3.88-0.8-5.35,0c-1.23,0.71-1.67,2.09,0.15,2.41c1.19,0.21,4,0.06,4,0.89
	c0,1.24-5,1.44-4.15,0.36c0.55-0.74,1.16,0.38,2.48,0.31c0.64,0,2-0.79-0.12-1.17s-2.76,0.24-3,0.73s0.43,2.31,3.25,2.19
	c2.39-0.1,2.73-1.78,2.63-2.49c-0.34-2.28-4.93-1.26-4.89-2C61.18,11.07,62.19,10.93,63.3,10.86z"/>
<path d="M69.73,8.56c-0.71,0.1,1.21,4.5,0.5,4.74c-0.39,0.12-1.79-3.42-2.81-3.32C66.58,10.07,65.6,15.6,67,15.7
	c1.06,0.07,0.55-3.44,1-3.46s1.27,2.94,2.33,3.06c0.87,0.1,1.45-0.82,1.49-2.27C71.85,11.42,70.59,8.44,69.73,8.56z"/>
<path d="M75.63,13.85c-0.607,0.174-1.23,0.288-1.86,0.34c-0.26-0.06-0.07-1,0.21-1.14s1.23,0,1.63-0.09
	c0.82-0.15,0.87-1.05,0.15-1.1c-0.46,0.026-0.92,0.026-1.38,0c-0.071-0.299,0.053-0.611,0.31-0.78c0.2-0.1,2.18,0,2.52-0.34
	s-0.17-1.13-0.74-1.2c-1.311-0.005-2.62,0.112-3.91,0.35c-0.29,0.14-0.45,0.43-0.2,0.61s0.74,0.35,0.86,0.58
	c0,0.16-0.17,0.67-0.36,0.8s-0.71,0.16-0.51,0.74s-1.2,2.32,0.47,3.35c0.86,0.53,2.7-0.55,3.21-0.86S76.67,13.67,75.63,13.85z"/>
<path d="M82.13,9.93c-1.1-0.17-3.52,3.29-3.69,3.18c-0.33-0.2,0.64-2.06,1-2.64c0.59-0.85,0.21-2.29-1.6,0.79
	c-0.72,1.022-0.831,2.353-0.29,3.48c-0.37,0.81-1.5,3.89-1.23,4.72s1,1.17,1.32,1c0.08-0.36,0.94-4,1.46-4.47
	c1.601,0.001,3.084-0.843,3.9-2.22C83.8,12.16,83.4,10.12,82.13,9.93z M80.13,14.21c0.21-0.81,1.79-3.07,2.1-3
	c0.87,0.4-0.38,3.14-2.14,3H80.13z"/>
<path d="M43.23,2.67c-3.79,0.11-4.49,1.27-4.17,1.94c0.19,0.41,1.34,0.37,1.39,0s-0.5-0.32-0.48-0.5s2.86-0.43,5.45,0.06
	c5.71,1.09,9.91,4.84,9.95,7.56c0.06,4.24-7.15,3.82-7.77,3.2c0-0.25,0-3.45,0-3.79c0.64-0.11,4,0.08,4,0.77s-0.69,0.64-0.66,0.93
	c0.07,0.69,2.13,0.16,2-1.16c-0.14-2-4.74-2.1-5.44-2.11c0-0.42,0-3.06-0.94-3.06c-0.8,0-0.79,2.37-0.8,3.18
	c-1.25,0.07-4.32,1.11-4.19,2.2c0.19,1.56,2.79,3.26,4.2,4c0,2.16,1.78,1.71,1.81,0.64c7.94,1.15,9.55-2.94,9.52-4.69
	C57.09,6.15,47.35,2.56,43.23,2.67z M45.84,14.5c-0.37,0.18-3.61-1.56-3.64-2.32c0-0.6,3.49-1.1,3.63-0.95
	C45.958,12.316,45.962,13.413,45.84,14.5z"/>
<path d="M61.93,6.84c1-1.18,0.34-2.11-0.41-2.24c-0.579-0.577-1.406-0.832-2.21-0.68c-1.53,0.27-3.24,1.78-3.1,2.72
	s0.29,0.73,0.39,1.23s0,1,0.46,1.06c0.262,0.032,0.51-0.128,0.59-0.38C59.289,8.878,60.968,8.208,61.93,6.84z M57.24,6.58
	c-0.17-0.07,0.43-1.16,1.13-1.21C58.06,6.05,57.34,6.63,57.24,6.58z M61.36,5.48c0.87,0.9-1.82,2.26-2.85,1.91
	C58.58,6.79,60.64,4.74,61.36,5.48z"/>
<path d="M37.93,26.49V26.1c0.205-0.001,0.41-0.024,0.61-0.07c0.032-0.011,0.06-0.032,0.08-0.06c0.033-0.051,0.054-0.109,0.06-0.17
	c0-0.17,0-0.54,0-1.12c0-0.28,0-0.75,0-1.43s0-1.15,0-1.62c0.006-0.278-0.014-0.556-0.06-0.83c0.007-0.033,0.007-0.067,0-0.1
	c-0.046-0.027-0.097-0.044-0.15-0.05l-0.53-0.06V20.2h1.27c0.307,0,0.617,0,0.93,0l0.4,0.9l0.31,0.67l1.43,3
	c0.307-0.593,0.537-1.053,0.69-1.38l0.59-1.25l0.61-1.29c0.07-0.16,0.15-0.36,0.25-0.61h0.76h1.34v0.39h-0.06
	c-0.2-0.027-0.404,0.011-0.58,0.11c-0.096,0.117-0.14,0.269-0.12,0.42c0,0.25,0,0.44,0,0.57v1.26v1.57
	c-0.02,0.223-0.02,0.447,0,0.67c0.006,0.234,0.026,0.468,0.06,0.7c-0.007,0.033-0.007,0.067,0,0.1c0.025,0.031,0.061,0.052,0.1,0.06
	c0.182,0.031,0.366,0.048,0.55,0.05v0.39h-1.44h-1.41V26.1c0.23-0.001,0.459-0.034,0.68-0.1c0.064-0.052,0.104-0.128,0.11-0.21
	c0.028-0.373,0.028-0.747,0-1.12v-3.22l-1,2.11l-0.5,1l-0.56,1.2l-0.34,0.77H41.7l-0.47-1c-0.35-0.75-0.61-1.31-0.79-1.68
	l-1.18-2.41v2.2c0,0.37,0,0.81,0,1.31s0,0.8,0,0.86c0.004,0.055,0.025,0.108,0.06,0.15c0.037,0.036,0.081,0.063,0.13,0.08
	c0.185,0.034,0.372,0.051,0.56,0.05v0.39h-1L37.93,26.49z"/>
<path d="M48.11,22.76c0.094-0.297,0.284-0.553,0.54-0.73c0.265-0.17,0.575-0.257,0.89-0.25c0.253-0.008,0.504,0.047,0.73,0.16
	c0.196,0.106,0.362,0.261,0.48,0.45c0.148,0.216,0.256,0.456,0.32,0.71c0.075,0.301,0.112,0.61,0.11,0.92
	c0.02,0.424-0.041,0.849-0.18,1.25c-0.1,0.296-0.293,0.552-0.55,0.73c-0.246,0.142-0.526,0.214-0.81,0.21
	c-0.3,0.011-0.597-0.069-0.85-0.23c-0.271-0.19-0.477-0.459-0.59-0.77c-0.165-0.444-0.243-0.916-0.23-1.39
	C47.958,23.461,48.005,23.103,48.11,22.76z M47.11,25.46c0.211,0.371,0.528,0.67,0.91,0.86c0.433,0.207,0.91,0.306,1.39,0.29
	c0.455,0.009,0.907-0.073,1.33-0.24c0.285-0.118,0.543-0.291,0.76-0.51s0.39-0.477,0.51-0.76c0.154-0.402,0.232-0.829,0.23-1.26
	c0-0.242-0.027-0.484-0.08-0.72c-0.046-0.215-0.127-0.421-0.24-0.61c-0.123-0.204-0.279-0.386-0.46-0.54
	c-0.204-0.179-0.442-0.316-0.7-0.4c-0.382-0.132-0.785-0.197-1.19-0.19c-0.411-0.001-0.819,0.063-1.21,0.19
	c-0.299,0.109-0.575,0.275-0.81,0.49c-0.249,0.231-0.444,0.514-0.57,0.83c-0.139,0.367-0.207,0.757-0.2,1.15
	c-0.002,0.499,0.13,0.989,0.38,1.42H47.11z"/>
<path d="M54.66,26.52c-0.21-0.5-0.4-1-0.59-1.44l-0.51-1.22c-0.4-0.95-0.65-1.53-0.74-1.71c-0.047-0.117-0.119-0.223-0.21-0.31
	c-0.144-0.051-0.297-0.074-0.45-0.07v-0.32h1h1.29v0.32c-0.146-0.016-0.294-0.016-0.44,0c-0.04,0.007-0.078,0.024-0.11,0.05
	c-0.012,0.029-0.012,0.061,0,0.09c0.053,0.234,0.13,0.462,0.23,0.68c0.1,0.233,0.15,0.353,0.15,0.36c0.006,0.023,0.006,0.047,0,0.07
	l0.92,2.24l0.81-2c0,0,0.1-0.27,0.26-0.68s0.17-0.48,0.19-0.58c0.005-0.03,0.005-0.06,0-0.09c0.007-0.03,0.007-0.06,0-0.09
	c0.004-0.016,0.004-0.034,0-0.05H56.3h-0.4v-0.32h0.92h0.77v0.32c-0.137,0-0.273,0.027-0.4,0.08c-0.174,0.249-0.312,0.522-0.41,0.81
	l-0.25,0.6L56,24.42c-0.41,1-0.69,1.69-0.83,2.1H54.66z"/>
<path d="M60.34,21.45v0.32H59.9c-0.033-0.007-0.067-0.007-0.1,0c-0.007,0.019-0.007,0.041,0,0.06c-0.01,0.076-0.01,0.154,0,0.23
	c-0.007,0.117-0.007,0.233,0,0.35c0,0.59,0,0.91,0,1v1.45v0.66c-0.016,0.16-0.016,0.32,0,0.48c0.008,0.028,0.026,0.053,0.05,0.07
	c0.036,0.009,0.074,0.009,0.11,0c0.14,0.01,0.28,0.01,0.42,0v0.32h-1.25h-1v-0.32h0.45c0.033,0.007,0.067,0.007,0.1,0
	c0.003-0.02,0.003-0.04,0-0.06c0.009-0.113,0.009-0.227,0-0.34c0-0.29,0-0.55,0-0.8v-1.5c0-0.48,0-0.79,0-0.92c0-0.31,0-0.5,0-0.57
	c0.007-0.026,0.007-0.054,0-0.08c-0.026-0.006-0.054-0.006-0.08,0h-0.46v-0.32c0.3,0,0.65,0,1,0S60,21.47,60.34,21.45z"/>
<path d="M61,26.49V26.3c0.123-0.059,0.24-0.129,0.35-0.21c0.011-0.163,0.011-0.327,0-0.49c0-0.41,0-0.71,0-0.89v-1.62
	c0-0.06,0-0.3,0-0.7c0.011-0.168-0.006-0.337-0.05-0.5c0.004-0.016,0.004-0.034,0-0.05c-0.166-0.045-0.338-0.069-0.51-0.07v-0.28
	h2.4h0.72h0.53h0.12v0.05l-0.07,0.52c0,0,0,0.21,0,0.52H64.2c0.018-0.173,0.018-0.347,0-0.52c0,0,0-0.06,0-0.07
	c-0.093-0.034-0.191-0.055-0.29-0.06c-0.23,0-0.46,0-0.69,0h-0.65c-0.018,0.333-0.018,0.667,0,1v0.73c0.167,0.01,0.333,0.01,0.5,0
	h0.59c0.076,0.018,0.154,0.018,0.23,0c0.008-0.023,0.008-0.047,0-0.07c0.034-0.151,0.05-0.305,0.05-0.46h0.29v1.58h-0.29
	c0.016-0.172-0.004-0.346-0.06-0.51c-0.031-0.054-0.088-0.088-0.15-0.09c-0.213-0.018-0.427-0.018-0.64,0h-0.57v1.49
	c0,0.17,0,0.32,0,0.44c0.23,0.012,0.46,0.012,0.69,0c0.25,0,0.49,0,0.71,0c0.136-0.002,0.271-0.026,0.4-0.07c0,0,0,0,0-0.07
	c0.064-0.212,0.111-0.43,0.14-0.65h0.29c-0.046,0.388-0.073,0.779-0.08,1.17l0,0c-0.216,0.012-0.434,0.012-0.65,0h-1.8L61,26.49z"/>
<path d="M73.33,25.67l-0.21,0.45c-0.314,0.179-0.65,0.317-1,0.41c-0.364,0.08-0.737,0.116-1.11,0.11
	c-0.574,0.011-1.145-0.091-1.68-0.3c-0.372-0.146-0.711-0.364-1-0.64c-0.251-0.253-0.458-0.547-0.61-0.87
	c-0.222-0.479-0.335-1.002-0.33-1.53c-0.021-0.879,0.344-1.724,1-2.31c0.759-0.642,1.738-0.965,2.73-0.9
	c0.365-0.003,0.73,0.027,1.09,0.09c0.381,0.079,0.755,0.186,1.12,0.32v0.06c-0.057,0.169-0.097,0.343-0.12,0.52
	c0,0.34-0.07,0.65-0.08,0.93h-0.35c0-0.32,0-0.59,0-0.78c-0.19-0.204-0.422-0.364-0.68-0.47c-0.32-0.118-0.659-0.173-1-0.16
	c-0.633-0.026-1.247,0.218-1.69,0.67c-0.452,0.514-0.682,1.187-0.64,1.87c-0.007,0.431,0.071,0.859,0.23,1.26
	c0.123,0.332,0.314,0.635,0.56,0.89c0.207,0.215,0.451,0.391,0.72,0.52c0.375,0.149,0.777,0.22,1.18,0.21
	c0.293,0.004,0.585-0.03,0.87-0.1c0.308-0.086,0.606-0.203,0.89-0.35L73.33,25.67z"/>
<path d="M74.05,26.49v-0.18l0.27-0.14l0.11-0.07l0,0c0.014-0.216,0.014-0.434,0-0.65c0-0.37,0-0.81,0-1.32c0-0.76,0-1.23,0-1.41
	c0.023-0.256,0.023-0.514,0-0.77c-0.011-0.027-0.028-0.051-0.05-0.07c-0.182-0.051-0.371-0.075-0.56-0.07v-0.32c0.3,0,0.65,0,1,0
	s0.85,0,1.24,0v0.32c-0.173-0.004-0.345,0.019-0.51,0.07c-0.031,0.011-0.054,0.037-0.06,0.07c-0.015,0.146-0.015,0.294,0,0.44
	c0,0.26,0,0.6,0,1c0,0,0,0.39,0,1v1c0,0.34,0,0.54,0,0.61h0.67c0.315,0.005,0.629-0.018,0.94-0.07c0.056,0.011,0.114,0.011,0.17,0
	c0.031-0.041,0.052-0.089,0.06-0.14c0.05-0.18,0.1-0.39,0.14-0.62h0.33c0,0.07,0,0.11,0,0.12l-0.09,0.73c0,0.23,0,0.36,0,0.41H77.5
	h-2.38L74.05,26.49z"/>
<path d="M78.25,21.77v-0.32h1.17h0.49h0.49h0.13v0.32c-0.17-0.02-0.342,0.004-0.5,0.07C79.992,21.884,79.98,21.945,80,22
	c-0.028,0.333-0.028,0.667,0,1v1.2c0,0.43,0,0.7,0,0.81c0.012,0.191,0.071,0.376,0.17,0.54c0.11,0.147,0.259,0.262,0.43,0.33
	c0.49,0.203,1.04,0.203,1.53,0c0.186-0.098,0.336-0.252,0.43-0.44c0.101-0.323,0.145-0.662,0.13-1v-0.73c0-0.63,0-1,0-1.16
	c0.023-0.179,0.023-0.361,0-0.54c-0.012-0.041-0.041-0.074-0.08-0.09c-0.165-0.052-0.337-0.075-0.51-0.07v-0.32h0.76h0.1h0.79v0.32
	c-0.143-0.013-0.287,0.007-0.42,0.06c0,0,0,0.05-0.07,0.1s0,0.3,0,0.73s0,0.77,0,1v0.84c0.015,0.223,0.015,0.447,0,0.67
	c-0.025,0.204-0.09,0.401-0.19,0.58c-0.219,0.372-0.58,0.639-1,0.74c-0.267,0.073-0.543,0.106-0.82,0.1
	c-0.338-0.001-0.674-0.048-1-0.14c-0.203-0.062-0.393-0.16-0.56-0.29c-0.14-0.112-0.256-0.251-0.34-0.41
	c-0.068-0.136-0.115-0.281-0.14-0.43c0-0.08,0-0.32,0-0.69v-1.6c0-0.34,0-0.64,0-0.91c-0.006-0.079-0.023-0.156-0.05-0.23
	c-0.024-0.035-0.055-0.066-0.09-0.09L78.25,21.77z"/>
<path d="M85.73,23v-0.56c0-0.22,0-0.42,0-0.6c0.14-0.01,0.28-0.01,0.42,0c0.166-0.01,0.333,0.014,0.49,0.07
	c0.114,0.054,0.206,0.146,0.26,0.26c0.071,0.135,0.106,0.287,0.1,0.44c0,0.157-0.027,0.313-0.08,0.46
	c-0.048,0.113-0.124,0.213-0.22,0.29c-0.101,0.072-0.217,0.12-0.34,0.14c-0.15,0.016-0.3,0.016-0.45,0H85.7L85.73,23z M85.13,26.46
	h1.2c0.275,0.009,0.549-0.032,0.81-0.12c0.209-0.076,0.404-0.184,0.58-0.32c0.163-0.141,0.298-0.31,0.4-0.5
	c0.11-0.199,0.165-0.423,0.16-0.65c0.003-0.213-0.049-0.423-0.15-0.61c-0.095-0.17-0.237-0.309-0.41-0.4
	c-0.29-0.119-0.597-0.19-0.91-0.21c0.24-0.063,0.474-0.146,0.7-0.25c0.198-0.085,0.367-0.223,0.49-0.4
	c0.11-0.173,0.169-0.375,0.17-0.58c0.003-0.184-0.05-0.365-0.15-0.52c-0.113-0.169-0.278-0.295-0.47-0.36
	c-0.298-0.092-0.609-0.132-0.92-0.12h-0.67h-1.23h-0.49h-0.17v0.32c0.19,0,0.378,0.027,0.56,0.08c0.027,0.019,0.045,0.048,0.05,0.08
	c0.024,0.226,0.024,0.454,0,0.68c0,0.53,0,0.91,0,1.16c0,0.92,0,1.55,0,1.9c0,0.17,0,0.31,0,0.43c-0.101,0.086-0.212,0.16-0.33,0.22
	v0.17L85.13,26.46z M85.75,25.98v-0.42v-1.63c0.093-0.01,0.187-0.01,0.28,0c0.218-0.005,0.434,0.029,0.64,0.1
	c0.162,0.071,0.296,0.195,0.38,0.35c0.1,0.195,0.148,0.411,0.14,0.63c0.021,0.304-0.076,0.605-0.27,0.84
	c-0.181,0.2-0.441,0.31-0.71,0.3c-0.146,0.015-0.294,0.015-0.44,0L85.75,25.98z"/>
<line class="st1" x1="37.15" y1="18.9" x2="88.94" y2="18.9"/>
<line class="st1" x1="37.15" y1="28.34" x2="88.94" y2="28.34"/>
</svg>
