<svg id="Layer_1" data-name="Layer 1" xmlns="http://www.w3.org/2000/svg" viewBox="0 0 126 32"><title>Artboard 1 copy 8</title><path d="M40.86,9.52h7.41v1.24H42.51v4h5.15V16H42.51v4.92h5.76v1.24H40.86Z"/><path d="M62.73,22.12H61.22v-5.4c0-1.5-.63-2-1.62-2a2.63,2.63,0,0,0-2.2,1.42v6H55.92V16.68c0-1.47-.65-1.94-1.56-1.94a3,3,0,0,0-2.24,1.31v6.07H50.59V15.64a18.49,18.49,0,0,0-.1-2h1.36a4.8,4.8,0,0,1,.24,1.3,3.32,3.32,0,0,1,2.72-1.51,2.31,2.31,0,0,1,2.43,1.65,3.21,3.21,0,0,1,2.68-1.65c1.62,0,2.81.86,2.81,3.08Z"/><path d="M65.16,15.83c0-.95-.08-1.87-.11-2.14h1.31a4.74,4.74,0,0,1,.22,1,3.36,3.36,0,0,1,2.68-1.24c2.34,0,3.82,1.76,3.82,4.34s-1.53,4.5-3.89,4.5a3.31,3.31,0,0,1-2.5-1v5H65.16Zm6.31,2c0-2.06-.93-3.17-2.57-3.17a3,3,0,0,0-2.21,1.1V20a2.9,2.9,0,0,0,2.17,1.19C70.52,21.22,71.47,19.89,71.47,17.82Z"/><path d="M75,11.32a.92.92,0,0,1,1-.94.92.92,0,1,1,0,1.84A.91.91,0,0,1,75,11.32Zm.23,2.37H76.8v8.43H75.27Z"/><path d="M86.59,13.69,83.5,17.06l3.33,5.06H85.05l-2.54-4L81.1,19.65v2.47H79.57v-13H81.1V18l3.71-4.31Z"/></svg>