<svg id="Layer_1" data-name="Layer 1" xmlns="http://www.w3.org/2000/svg" viewBox="0 0 126 32"><defs><style>.cls-1,.cls-2{fill:#231f20;}.cls-2{fill-rule:evenodd;}</style></defs><title>Artboard 1 copy 16</title><path class="cls-1" d="M67.05,12.05H65.2V10.32H71v1.73H69.12V22.21h-2V12.05Z"/><path class="cls-1" d="M72.12,22.21V10.32h2v4.85h2.07V10.32h2V22.21h-2V16.9H74.09v5.31Z"/><path class="cls-1" d="M80,10.32h2v9c0,.93.35,1.27,1,1.27s1-.46,1-1.27v-9h2v8.89a2.77,2.77,0,0,1-3,3.11,2.82,2.82,0,0,1-3-3.11Z"/><path class="cls-1" d="M88.16,22.21V10.32h2V22.21Z"/><path class="cls-1" d="M95.89,13.21c-.11-1-.58-1.27-1-1.27s-.92.46-.92,1.15c0,2.08,4,3,4,6.23a2.82,2.82,0,0,1-3.12,3c-1.84,0-2.88-1.5-3-3.34l1.85-.23c.11,1.15.58,1.84,1.15,1.84s1.16-.34,1.16-1c0-2.3-4-3-4-6.34a2.78,2.78,0,0,1,3-3c1.61,0,2.54,1.15,2.77,2.88Z"/><path class="cls-2" d="M39.24,12.17c-.34,1.73,1.73.81,1.85.58a3.81,3.81,0,0,0-.69-2.2C39.7,9.63,39.36,11.59,39.24,12.17Z"/><path class="cls-2" d="M33.7,9.52c-.46-.35-1-.46-1.38,0s-.58.92.35,2.42c.23.35,1.5-.35,1.61-.92A2,2,0,0,0,33.7,9.52Z"/><path class="cls-2" d="M55.39,23.59c-.34,0-1.15-.92-1.26-2.07-.12-.81.57-9.81.57-10.39a3.73,3.73,0,0,1,1.39-2.42,4.11,4.11,0,0,1,1.73-.46,4.93,4.93,0,0,0-.58-1,5.88,5.88,0,0,1-2.31-.35c-.8-.46-.46-.69-.11-.8s.81-.12,1.5.11a12.39,12.39,0,0,0-2.66-2.31A20.51,20.51,0,0,0,44,1a27,27,0,0,0-6.8.58c-.81.23-4.62.92-6.81,3.92A9.69,9.69,0,0,0,28.74,14a21.74,21.74,0,0,0,3.93,7.73c1.15,1.61,2.88,3,1.5,4.38s-2.31,2.54-2.31,2.54l4.38-1.73a20.05,20.05,0,0,0,3.23,2.65A10.3,10.3,0,0,0,44,31c1.73,0,6-1.16,9.58-4.85a16.62,16.62,0,0,0,2.31-2.77C55.63,23.59,55.63,23.59,55.39,23.59ZM35.78,12.86a14.47,14.47,0,0,1-2.19,1.27s.23,1.85.46,3.58c.46,2.54.81,6.69-.81,3.69a54.34,54.34,0,0,1-3.92-10.61,2,2,0,0,1,.12-1.62c.11-.23,2.53-3.46,5.65-2.08a4.42,4.42,0,0,1,1.84,2.54C36.93,10.67,37.05,11.94,35.78,12.86Zm7.85,8.77c-.12,1-.58,3.69-1.62.81a29.17,29.17,0,0,1-.81-4.27c-.11-.92,0-3.23-1.27-3-.69.12-1,1.5-1.5,3.58a18.18,18.18,0,0,0-.69,3.34c-.11.81-.23,1.73-.81,1.5s-.57-2.42-.34-5,.34-2.54.81-6.23,1.5-4.27,1.84-4.61c1.27-1.39,3.23,0,3.69,3.8S43.74,20.48,43.63,21.63ZM47,9.4c-.11,1.85-.46,5.77-.57,8.08s-.35,6.8-.81,7.61c-.58,1.39-1.16-.46-1.39-.92s.12-2,.12-3c.11-1.73.34-9.69.11-12S44,6.52,43.4,6.4A21.06,21.06,0,0,0,41,5.82c-1-.23-.92-.8-.8-1.38s1.38-.69,2.19-.81c5-.34,6.69.46,7.61.81s1.39,1.15,1,1.38a7.51,7.51,0,0,1-2.65.35C47.43,6.17,47.09,7.56,47,9.4Zm6.12,11.88c-.12.93-.35,3.93-.46,4.5s-.47,1.85-1.39.81c-.34-.34-.34-2.19-.34-3.81,0-.8.57-3.69.46-4.49-.23-1.39-.93-.47-1.16.34a24.38,24.38,0,0,0-.46,3,13.13,13.13,0,0,1-.81,3.92c-1,2.08-1.27-.23-1.15-1.27s.35-4.73.35-6,.34-4.62.23-7.16a10.42,10.42,0,0,1,.57-4.27c.12-.34.35-.46.93-.46,1.27-.11.34,4.27.23,6.46s-.23,2.66.69,2.77.92-1.15.92-2.42.35-4,.46-4.85.58-1.61,1.5-1.27.58,1.27.58,1.85C54.13,10.32,53.2,20.36,53.09,21.28Z"/><path class="cls-2" d="M58.86,11.36c0-.23-.12-.46-.12-.69-.23-.12-1.85-.69-2,.81s-.46,1.73.46,2.19,1.85,1,1.15,1.73a3,3,0,0,1-1.84.69c-.35.12-.81.46-.81,2s.35,1.62.81,2,1,.46.81,1a17.52,17.52,0,0,0,1.38-3.34v-.12a3.19,3.19,0,0,0,.23-1A13.29,13.29,0,0,0,58.86,11.36Z"/></svg>