<?xml version="1.0" encoding="UTF-8"?>
<svg width="40px" height="40px" viewBox="0 0 40 40" version="1.1" xmlns="http://www.w3.org/2000/svg">
    <g id="Page-1" stroke="none" stroke-width="1" fill="none" fill-rule="evenodd">
            <path d="M20,38 C10.0588745,38 2,29.9411255 2,20 C2,10.0588745 10.0588745,2 20,2 C29.9411255,2 38,10.0588745 38,20 C38,29.9411255 29.9411255,38 20,38 Z" id="Oval" fill-opacity="0.6" fill="#000000"></path>
            <path d="M20,38 C29.9411255,38 38,29.9411255 38,20 C38,10.0588745 29.9411255,2 20,2 C10.0588745,2 2,10.0588745 2,20 C2,29.9411255 10.0588745,38 20,38 Z M20,40 C8.954305,40 0,31.045695 0,20 C0,8.954305 8.954305,0 20,0 C31.045695,0 40,8.954305 40,20 C40,31.045695 31.045695,40 20,40 Z" id="Oval" fill="#FFFFFF"></path>
            <path d="M25.3464615,13.7360464 C27.4367179,15.2591234 28.5864615,17.3022003 28.5864615,19.4868157 C28.5864615,21.674508 27.4367179,23.7175849 25.3464615,25.2396362 C25.2162051,25.3350208 25.0644103,25.3791234 24.9167179,25.3791234 C24.6890256,25.3791234 24.4633846,25.274508 24.3197949,25.0755336 C24.0818462,24.7473285 24.1556923,24.28579 24.4828718,24.04579 C25.6838974,23.1709182 27.1177436,21.6704054 27.1177436,19.4868157 C27.1177436,17.3063029 25.6838974,15.8037388 24.4828718,14.9278413 C24.1556923,14.6878413 24.0818462,14.2263029 24.3197949,13.8980977 C24.5597949,13.5698926 25.0192821,13.4970721 25.3464615,13.7360464 Z M21.2707692,10.2907131 C21.4328205,10.3584054 21.5384615,10.5194311 21.5384615,10.696867 L21.5384615,28.2784054 C21.5384615,28.4558413 21.4328205,28.616867 21.2707692,28.6845593 C21.2174359,28.7071234 21.1610256,28.7184054 21.1046154,28.7184054 C20.9917949,28.7184054 20.8810256,28.6732772 20.7979487,28.5891747 L14.8502564,22.5645593 L11.9928205,22.5645593 C11.0348718,22.5645593 10.2564103,21.7758413 10.2564103,20.8066105 L10.2564103,18.1686618 C10.2564103,17.1994311 11.0348718,16.4107131 11.9928205,16.4107131 L14.8502564,16.4107131 L20.7979487,10.3860977 C20.9220513,10.2599439 21.1087179,10.2209695 21.2707692,10.2907131 Z" id="Combined-Shape" fill="#FFFFFF"></path>
    </g>
</svg>