<svg id="Layer_1" data-name="Layer 1" xmlns="http://www.w3.org/2000/svg" viewBox="0 0 126 32"><title>Artboard 1 copy 4</title><path d="M41.87,9.52h7v1.24H43.53V15.1h4.88v1.22H43.53v5.8H41.87Z"/><path d="M52.64,12.76v9.36H51V9.41h.84L60,18.91V9.52h1.62V22.21h-.85Z"/><path d="M68.84,9.43h.7l5.4,12.69H73.18L72,19.42H66.12L65,22.12H63.26Zm2.7,8.76-2.4-6-2.52,6Z"/><path d="M75.48,15.82c0-3.77,2.47-6.56,6.19-6.56a6.71,6.71,0,0,1,3.42.8v1.58a5.72,5.72,0,0,0-3.35-1c-2.75,0-4.55,2.2-4.55,5.19S79,21,81.76,21a6.05,6.05,0,0,0,3.33-1v1.56a7,7,0,0,1-3.4.81C77.93,22.35,75.48,19.78,75.48,15.82Z"/></svg>