<svg id="Layer_1" data-name="Layer 1" xmlns="http://www.w3.org/2000/svg" viewBox="0 0 126 32"><title>Artboard 1 copy 7</title><path d="M26.83,9.52h7v1.24H28.49V15.1h4.88v1.22H28.49v5.8H26.83Z"/><path d="M35.38,11.32a1,1,0,1,1,1,.9A.92.92,0,0,1,35.38,11.32Zm.24,2.37h1.53v8.43H35.62Z"/><path d="M39.92,19.71V9.16h1.53V19.73c0,.95.36,1.35,1.26,1.35a3.46,3.46,0,0,0,.9-.13v1.13a3.85,3.85,0,0,1-1.28.18C40.68,22.26,39.92,21.53,39.92,19.71Z"/><path d="M57.31,22.12H55.8v-5.4c0-1.5-.63-2-1.62-2A2.65,2.65,0,0,0,52,16.16v6H50.5V16.68c0-1.47-.64-1.94-1.56-1.94a3,3,0,0,0-2.23,1.31v6.07H45.18V15.64a17.57,17.57,0,0,0-.11-2h1.37a5.55,5.55,0,0,1,.23,1.3,3.34,3.34,0,0,1,2.72-1.51,2.31,2.31,0,0,1,2.43,1.65,3.21,3.21,0,0,1,2.68-1.65c1.62,0,2.81.86,2.81,3.08Z"/><path d="M59.21,19.64c0-1.52,1.32-2.67,3.44-2.67a4.42,4.42,0,0,1,1.68.27v-.77c0-1.23-.6-1.88-2-1.88a5.87,5.87,0,0,0-2.49.63V14a6.74,6.74,0,0,1,2.76-.54c2.09,0,3.22.93,3.22,2.79V20c0,.88.27,1.28.7,1.28a1.05,1.05,0,0,0,.44-.11V22a1.64,1.64,0,0,1-.94.22A1.46,1.46,0,0,1,64.42,21a2.68,2.68,0,0,1-2.49,1.29A2.49,2.49,0,0,1,59.21,19.64Zm5.12.19V18.16a3.71,3.71,0,0,0-1.42-.24c-1.44,0-2.09.73-2.09,1.7a1.37,1.37,0,0,0,1.53,1.51A2.18,2.18,0,0,0,64.33,19.83Z"/><path d="M68.56,15.64a17.66,17.66,0,0,0-.11-2h1.37a3.8,3.8,0,0,1,.23,1.16,2.78,2.78,0,0,1,2.2-1.37,2.75,2.75,0,0,1,1.13.23v1.35a2.7,2.7,0,0,0-1.24-.29,2.51,2.51,0,0,0-2,1v6.32H68.56Z"/><path d="M74.17,17.91c0-2.65,1.59-4.43,4-4.43a3.55,3.55,0,0,1,3.67,3.81c0,.31,0,.67,0,.8H75.74c.07,1.87,1,3.06,2.88,3.06a4.79,4.79,0,0,0,2.85-.87v1.19a5.08,5.08,0,0,1-3,.87A4.07,4.07,0,0,1,74.17,17.91Zm6.21-.85a2.17,2.17,0,0,0-2.23-2.47,2.49,2.49,0,0,0-2.39,2.47Z"/><path d="M83.89,15.66a19,19,0,0,0-.1-2h1.36a4.1,4.1,0,0,1,.24,1.3,3.56,3.56,0,0,1,2.82-1.51c1.32,0,2.83.66,2.83,3.11v5.53H89.51V16.75c0-1.51-.72-2-1.69-2a3.09,3.09,0,0,0-2.4,1.31v6.07H83.89Z"/><path d="M92.93,19.64c0-1.52,1.31-2.67,3.44-2.67a4.34,4.34,0,0,1,1.67.27v-.77c0-1.23-.59-1.88-2-1.88a5.78,5.78,0,0,0-2.48.63V14a6.64,6.64,0,0,1,2.75-.54c2.09,0,3.22.93,3.22,2.79V20c0,.88.27,1.28.71,1.28a1,1,0,0,0,.43-.11V22a1.64,1.64,0,0,1-.94.22A1.46,1.46,0,0,1,98.13,21a2.66,2.66,0,0,1-2.48,1.29A2.49,2.49,0,0,1,92.93,19.64Zm5.11.19V18.16a3.71,3.71,0,0,0-1.42-.24c-1.44,0-2.09.73-2.09,1.7a1.37,1.37,0,0,0,1.53,1.51A2.18,2.18,0,0,0,98,19.83Z"/></svg>