<?xml version="1.0" encoding="utf-8"?>
<!-- Generator: Adobe Illustrator 24.0.1, SVG Export Plug-In . SVG Version: 6.00 Build 0)  -->
<svg version="1.1" id="Layer_1" xmlns="http://www.w3.org/2000/svg" xmlns:xlink="http://www.w3.org/1999/xlink" x="0px" y="0px"
	 viewBox="0 0 126 32" style="enable-background:new 0 0 126 32;" xml:space="preserve">
<style type="text/css">
	.st0{fill:none;}
	.st1{display:none;fill:none;}
	.st2{fill:#101010;}
	.st3{fill:#FFFFFF;}
</style>
<title>amazon_prime_video</title>
<rect x="0" class="st0" width="126" height="32"/>
<g>
	<g>
		<path class="st1" d="M37.8,18.2C37.8,18.2,37.8,18.2,37.8,18.2C37.8,18.2,37.8,18.2,37.8,18.2C37.8,18.2,37.8,18.2,37.8,18.2
			C37.8,18.2,37.8,18.2,37.8,18.2C37.8,18.2,37.8,18.2,37.8,18.2C37.8,18.2,37.8,18.2,37.8,18.2z"/>
		<g>
			<path class="st0" d="M37.1,18C37.1,18,37.1,18,37.1,18C37.1,18,37.1,18,37.1,18C37.1,18,37.1,18,37.1,18C37.1,18,37.1,18,37.1,18
				C37.1,18,37.1,18,37.1,18C37.1,18,37.1,18,37.1,18z"/>
			<polygon class="st0" points="37.1,18 37.1,18 37.1,18 			"/>
			<path class="st0" d="M36.8,15.8L36.8,15.8c-0.1,0.5-0.5,0.7-0.5,0.7s-0.4,0.2-0.6-0.1c-0.1-0.2,0.3-0.5,0.3-0.5
				C36.3,15.6,36.8,15.8,36.8,15.8C36.8,15.8,36.8,15.8,36.8,15.8C36.8,15.8,36.8,15.8,36.8,15.8z"/>
			<polygon class="st2" points="35.7,11.5 35.7,11.5 35.7,11.5 35.7,11.5 			"/>
			<path class="st2" d="M35.6,10.1c-0.3,0.2-0.6,0.4-0.9,0.6l0,0c0,0,0.5,0,1.2,0.3l0,0c0,0,0-0.1,0-0.1
				C35.9,10.6,35.9,10.4,35.6,10.1C35.7,10.1,35.7,10.1,35.6,10.1C35.6,10.1,35.6,10.1,35.6,10.1z"/>
			<polygon class="st2" points="37.1,18 37.1,18 37.1,18 			"/>
			<polygon class="st2" points="35.3,9.2 35.3,9.2 35.3,9.2 			"/>
			<path class="st2" d="M34.2,11.2c-0.3,0-1.1,0.2-1.3,0.7c-0.1,0.2-0.2,0.5,0.3,0.8c0,0,0.6,0.3,1.5-0.2c0.3-0.2,0.5-0.4,0.7-0.6
				c0.1-0.1,0.2-0.3,0.3-0.4C35.7,11.4,35.1,11.1,34.2,11.2z"/>
			<path class="st2" d="M37.1,18C37.1,18,37.1,18,37.1,18C37.1,18,37.1,18,37.1,18C37.1,18,37.1,18,37.1,18C37.1,18,37.1,18,37.1,18
				z"/>
			<path class="st2" d="M36.5,13.1c0-0.1,0.1-0.7-0.3-1.2c0,0,0,0,0,0l0,0c-0.1,0.1-0.1,0.2-0.2,0.4c-0.1,0.2-0.4,0.7-1,1.1
				c0,0,0,0,0,0c0.1,0,0.8-0.1,1.3,0.2l0,0C36.4,13.4,36.5,13.2,36.5,13.1z"/>
			<path class="st2" d="M33.7,9.1c-0.7-0.1-1.2,0-1.4,0.2c-0.2,0.2-0.2,0.3-0.2,0.3c0.2,0.4,1.6,0.2,2.1,0.1
				c0.3-0.1,0.6-0.2,0.8-0.3c0,0,0,0,0,0C34.6,9.3,34,9.2,33.7,9.1z"/>
			<polygon class="st2" points="36.1,13.9 36.1,13.9 36.1,13.9 36.1,13.9 			"/>
			<polygon class="st2" points="36.8,15.2 36.8,15.2 36.8,15.2 			"/>
			<path class="st2" d="M36.6,14.4c-0.1,0.2-0.2,0.4-0.4,0.7l0,0c0,0,0.4,0,0.6,0.1C36.8,15,36.7,14.8,36.6,14.4L36.6,14.4z"/>
			<path class="st2" d="M36.8,15.8C36.8,15.8,36.8,15.8,36.8,15.8C36.8,15.8,36.8,15.8,36.8,15.8L36.8,15.8z"/>
			<path class="st2" d="M36,14C36.1,14,36.1,14,36,14c0-0.1-0.7-0.4-1.5,0c-0.2,0.1-0.3,0.3-0.3,0.5c0,0,0.1,0.4,0.6,0.3
				C34.9,14.8,35.4,14.7,36,14z"/>
			<path class="st2" d="M35.9,15.8c0,0-0.4,0.3-0.3,0.5c0.2,0.3,0.6,0.1,0.6,0.1s0.4-0.1,0.5-0.7C36.8,15.8,36.3,15.6,35.9,15.8z"/>
			<polygon class="st3" points="36.4,13.5 36.4,13.5 36.4,13.5 			"/>
		</g>
		<g>
			<path class="st0" d="M37.1,18C37.1,18,37.1,18,37.1,18C37.1,18,37.1,18,37.1,18C37.1,18,37.1,18,37.1,18C37.1,18,37.1,18,37.1,18
				C37.1,18,37.1,18,37.1,18C37.1,18,37.1,18,37.1,18z"/>
			<path class="st0" d="M40.9,17c-0.3-0.1-0.6,0-1,0.1c-0.4,0-0.7,0-1.2-0.4c-0.5-0.4-1.3-1.1-1.3-1.1c0,0,0,0,0,0l0,0l0,0.1l-0.2,0
				l0-0.1l0.1-0.1l0,0l0,0c0.1-1-0.6-1.7-0.6-1.7l0,0c0.2-0.5,0.2-0.9,0.2-1.3c-0.1-0.9-0.6-1.3-0.6-1.3c0.3-1-0.4-1.6-0.4-1.6
				c0,0,0,0,0,0l0,0c0.1-0.1,0.2-0.3,0.3-0.4c0.1-0.1,0.2-0.4,0.2-0.5c0-0.2-0.2-0.5-0.5-0.6c0,0-0.2-0.1-0.6-0.1
				C35,8,34,7.9,33.8,7.7c-0.2-0.2-0.2-0.5-0.1-0.7c0.1-0.2,0.2-0.4,0.4-0.6c0.2-0.2,0.9-0.8,1.1-0.9c0,0,0,0,0,0c0,0,0,0,0,0
				c0.3-0.2,0.1-0.8-0.3-1.3c-0.4-0.5-1-0.7-1.3-0.5c0,0-0.1,0.1-0.1,0.1c0,0-1,0.9-1,2.2c0,0.5,0.2,1.3,0.8,1.8
				C33.6,8,34,8.2,35,8.4c0.2,0,0.6,0.1,0.6,0.4c0,0.1-0.1,0.3-0.2,0.4c0,0-1-0.6-2.4-0.6c-0.7,0-1.6,0.1-2.1,0.7
				c-0.2,0.3-0.3,0.8,0,1.2c0.1,0.2,0.4,0.5,0.9,0.6c0.2,0,0.4,0.1,0.7,0.1c0,0,0,0,0,0c-0.7,0.4-1,0.8-1.1,1.3
				c-0.1,0.3,0,0.6,0.1,0.8c0.3,0.7,1.4,0.8,2.1,0.7l0,0c0,0,0,0,0,0c-0.5,0.4-0.7,1.1-0.4,1.6c0.4,0.7,1.2,0.6,1.5,0.6l0,0
				c0,0,0,0,0,0c-0.1,1.4,1.2,1.3,1.2,1.3c0.8,0,1.2-0.7,1.2-0.7c0.2-0.3,0.3-0.5,0.3-0.8l0,0c0,0,0,0,0,0s0.2,0.1,0.3,0.2
				c0,0-0.5,0-0.7,0.9c-0.1,0.3-0.1,0.8,0.2,0.9c0,0,0,0,0,0c0,0,0,0,0,0c0,0,0,0,0,0c0.3,0.1,0.5,0.1,0.8,0.2
				c1.1,0.2,1.9-0.1,2.2-0.2c0.8-0.2,0.9-0.5,0.9-0.5C41,17.5,41.2,17.2,40.9,17z"/>
			<path class="st2" d="M43.6,4.4c-0.3-0.7-1.1-1.5-2.6-1.5H30.8c0,0-0.7,0-1.5,0.4c-0.7,0.3-1.5,1-1.5,2.5V16c0,0,0,0.7,0.4,1.5
				c0.3,0.7,1.1,1.5,2.6,1.5H41c0,0,0.7,0,1.5-0.4c0.7-0.3,1.5-1,1.5-2.5V5.9C44,5.8,44,5.1,43.6,4.4z M41,17.5c0,0-0.1,0.3-0.9,0.5
				c-0.3,0.1-1.1,0.3-2.2,0.2c-0.3,0-0.5-0.1-0.8-0.2c0,0,0,0,0,0c0,0,0,0,0,0c0,0,0,0,0,0c0,0,0,0,0,0c0,0,0,0,0,0c0,0,0,0,0,0
				c0,0,0,0,0,0c0,0,0,0,0,0c0,0,0,0,0,0c-0.2-0.1-0.3-0.6-0.2-0.9c0.2-0.9,0.7-0.9,0.7-0.9c-0.1-0.1-0.3-0.2-0.3-0.2s0,0,0,0l0,0
				c-0.1,0.2-0.2,0.5-0.3,0.8c0,0-0.4,0.7-1.2,0.7c0,0-1.4,0.1-1.2-1.3c0,0,0,0,0,0l0,0c-0.3,0-1.1,0.1-1.5-0.6
				c-0.3-0.5,0-1.2,0.4-1.6c0,0,0,0,0,0l0,0c-0.7,0.1-1.8,0-2.1-0.7c-0.1-0.2-0.1-0.5-0.1-0.8c0.1-0.4,0.4-0.9,1.1-1.3c0,0,0,0,0,0
				c-0.3,0-0.5,0-0.7-0.1c-0.6-0.1-0.8-0.4-0.9-0.6c-0.2-0.3-0.2-0.8,0-1.2c0.4-0.6,1.3-0.7,2.1-0.7c1.3,0,2.3,0.5,2.4,0.6
				c0.2-0.1,0.2-0.3,0.2-0.4c0-0.3-0.5-0.4-0.6-0.4C34,8.2,33.6,8,33.3,7.8c-0.7-0.5-0.8-1.3-0.8-1.8c0-1.3,1-2.2,1-2.2
				c0,0,0.1-0.1,0.1-0.1c0.3-0.2,0.9,0,1.3,0.5c0.4,0.5,0.6,1.1,0.3,1.3c0,0,0,0,0,0c0,0,0,0,0,0c-0.2,0.1-0.9,0.7-1.1,0.9
				c-0.2,0.2-0.3,0.3-0.4,0.6c-0.1,0.2-0.2,0.5,0.1,0.7C34,7.9,35,8,35.4,8.1C35.8,8.1,36,8.2,36,8.2c0.3,0.1,0.5,0.3,0.5,0.6
				c0,0.2-0.1,0.4-0.2,0.5c-0.1,0.1-0.2,0.3-0.3,0.4l0,0c0,0,0,0,0,0c0,0,0.6,0.6,0.4,1.6c0,0,0.5,0.3,0.6,1.3c0,0.3,0,0.8-0.2,1.3
				l0,0c0,0,0.6,0.7,0.6,1.7l0,0c0,0,0,0,0,0c0,0,0.8,0.8,1.3,1.1c0.5,0.4,0.8,0.4,1.2,0.4c0.4,0,0.8-0.2,1-0.1
				C41.2,17.2,41,17.5,41,17.5z"/>
		</g>
		<g>
			<path d="M60.7,6.1l-0.5,0.6c-0.3,0.4-0.8,0.4-1.2,0.1c-1.1-0.9-2.5-1.4-3.8-1.4c-3.2,0-5.7,2.5-5.7,5.6s2.5,5.6,5.7,5.6
				c1.3,0,2.7-0.5,3.8-1.4c0.3-0.3,0.8-0.2,1.1,0.1l0.5,0.5c0.3,0.4,0.3,0.9-0.1,1.2c-1.5,1.2-3.5,2-5.5,2c-4.7,0-8.3-3.5-8.3-8.1
				c0-4.5,3.7-8,8.4-8c2,0,3.9,0.7,5.4,1.9C60.9,5.2,61,5.7,60.7,6.1z"/>
			<path d="M72.7,17.1v-4.6h-7.2v5.7c0,0.5-0.4,0.8-0.8,0.8h-1c-0.5,0-0.8-0.4-0.8-0.8V4c0-0.5,0.4-0.8,0.8-0.8h1
				c0.5,0,0.8,0.4,0.8,0.8V10h7.2V4c0-0.5,0.4-0.8,0.8-0.8h1c0.5,0,0.8,0.4,0.8,0.8v14.2c0,0.5-0.4,0.8-0.8,0.8
				C74.6,19,72.7,19,72.7,17.1z"/>
			<path d="M78.3,17.1V4c0-0.5,0.4-0.8,0.8-0.8h1C80.6,3.1,81,3.5,81,4v14.2c0,0.5-0.4,0.8-0.8,0.8C80.1,19,78.3,19,78.3,17.1z"/>
			<path d="M95.4,17.1V4c0-0.5,0.4-0.8,0.8-0.8h1c0.5,0,0.8,0.4,0.8,0.8v14.2c0,0.5-0.4,0.8-0.8,0.8C97.3,19,95.4,19,95.4,17.1z"/>
			<path d="M93.4,17.4c0,0,0,1.6-2,1.6h-6.8c-0.5,0-0.8-0.4-0.8-0.8V3.9c0-0.5,0.4-0.8,0.8-0.8h1c0.5,0,0.8,0.4,0.8,0.8v12.6h6
				C93.1,16.5,93.4,16.9,93.4,17.4z"/>
		</g>
	</g>
	<g>
		<path d="M27.6,25.8c0-0.9,0-1.2,0.2-1.5c0.3-0.9,1-1.4,2-1.4c1,0,1.7,0.5,2,1.3c0,0,0,0.1,0,0.1l-0.9,0.4c-0.1,0-0.1,0-0.1,0
			c-0.2-0.4-0.4-0.6-0.9-0.6c-0.4,0-0.7,0.2-0.9,0.6c-0.1,0.2-0.1,0.4-0.1,1.2c0,0.8,0,1,0.1,1.2c0.1,0.4,0.4,0.6,0.9,0.6
			c0.5,0,0.7-0.3,0.9-0.6c0-0.1,0.1-0.1,0.1,0l0.9,0.4c0.1,0,0.1,0.1,0,0.1c-0.3,0.8-1,1.3-2,1.3c-1,0-1.7-0.5-2-1.4
			C27.6,27,27.6,26.7,27.6,25.8z"/>
		<path d="M41,23C41,23,41,22.9,41,23l1.2-0.1c0.1,0,0.1,0,0.1,0.1v5.6c0,0.1,0,0.1-0.1,0.1H41c-0.1,0-0.1,0-0.1-0.1V23z"/>
		<path d="M51.7,23C51.7,23,51.7,22.9,51.7,23l1.1-0.1c0.1,0,0.1,0,0.1,0.1l2,3.6h0V23c0-0.1,0-0.1,0.1-0.1h1c0.1,0,0.1,0,0.1,0.1
			v5.6c0,0.1,0,0.1-0.1,0.1h-1c-0.1,0-0.1,0-0.1-0.1l-2-3.6h0v3.6c0,0.1,0,0.1-0.1,0.1h-1c-0.1,0-0.1,0-0.1-0.1V23z"/>
		<path d="M65.6,23C65.6,23,65.7,22.9,65.6,23l3.8-0.1c0.1,0,0.1,0,0.1,0.1v0.9c0,0.1,0,0.1-0.1,0.1h-2.5c0,0-0.1,0-0.1,0.1v1.1
			c0,0,0,0.1,0.1,0.1H69c0.1,0,0.1,0,0.1,0.1v0.9c0,0.1,0,0.1-0.1,0.1h-2.1c0,0-0.1,0-0.1,0.1v1.2c0,0,0,0.1,0.1,0.1h2.5
			c0.1,0,0.1,0,0.1,0.1v0.9c0,0.1,0,0.1-0.1,0.1h-3.7c-0.1,0-0.1,0-0.1-0.1V23z"/>
		<path d="M78.8,23C78.8,23,78.8,22.9,78.8,23l1.1-0.1c0.1,0,0.1,0,0.1,0.1l1.4,3.3h0l1.4-3.3c0-0.1,0.1-0.1,0.1-0.1h1
			c0.1,0,0.1,0,0.1,0.1v5.6c0,0.1,0,0.1-0.1,0.1h-1c-0.1,0-0.1,0-0.1-0.1v-3.2h0l-1.1,2.4c0,0.1-0.1,0.1-0.2,0.1h-0.6
			c-0.1,0-0.1,0-0.2-0.1l-1.1-2.4h0v3.2c0,0.1,0,0.1-0.1,0.1h-1c-0.1,0-0.1,0-0.1-0.1V23z"/>
		<path d="M95.2,23c0-0.1,0.1-0.1,0.1-0.1h1.1c0.1,0,0.1,0,0.1,0.1l1.9,5.6c0,0.1,0,0.1-0.1,0.1h-1.1c-0.1,0-0.1,0-0.1-0.1l-0.3-1
			h-2l-0.3,1c0,0.1-0.1,0.1-0.1,0.1h-1.1c-0.1,0-0.1,0-0.1-0.1L95.2,23z M96.5,26.5l-0.6-2h0l-0.6,2H96.5z"/>
	</g>
</g>
</svg>
